<svg width="105" height="33" viewBox="0 0 105 33" fill="none" xmlns="http://www.w3.org/2000/svg">
<g clip-path="url(#clip0_338_2194)">
<path d="M0 -0.0649414C0.429547 -0.0422999 0.849072 0.000152923 1.27432 0.000152923C35.4253 0.000152923 69.5757 0.000152923 103.726 0.000152923C104.155 0.000152923 104.576 -0.0422999 105 -0.0649414V32.9068C104.538 32.9351 104.075 32.9902 103.611 32.9902C69.5337 32.9902 35.4596 32.9902 1.38887 32.9902C0.926391 32.9902 0.462479 32.9351 0 32.9068L0 -0.0649414ZM2.60306 30.3044H102.358V2.75817H2.60306V30.3044Z" fill="#131313"/>
<path d="M38.44 16.2806L40.8355 12.215C42.0325 10.1886 42.0311 10.1886 44.5912 10.5679V22.5113H41.5972V17.2061L41.3595 17.1141L39.9478 19.4886C39.2777 20.6136 37.5623 20.5966 36.8879 19.4561C36.4111 18.648 35.9401 17.8372 35.2542 17.0985V22.4999H32.2617V10.6485C34.2734 10.0471 34.9006 10.2834 35.9071 12.0013C36.7233 13.3839 37.5423 14.7622 38.44 16.2806Z" fill="#131313"/>
<path d="M60.0235 16.6599C60.0235 14.9929 60.075 13.3245 60.0034 11.6617C59.9619 10.7165 60.2368 10.3174 61.2276 10.4292C61.8304 10.4971 62.4461 10.4419 63.1262 10.4419V22.3839C61.2405 22.8933 60.6921 22.7264 59.5696 21.29C58.2809 19.6358 56.9923 17.9759 55.4617 16.3896V22.4872H52.3389V10.6386C54.2375 10.1349 54.7415 10.2863 55.8325 11.6801C57.1498 13.3613 58.4652 15.0448 59.7786 16.7306L60.0235 16.6599Z" fill="#131313"/>
<path d="M18.9534 10.0938C22.5745 10.0754 25.6472 13.0273 25.6486 16.5283C25.6486 20.0052 22.5415 22.9839 18.9348 22.9627C15.3853 22.9401 12.3971 20.0009 12.3742 16.5085C12.3512 13.0726 15.3867 10.1122 18.9534 10.0938ZM22.4943 16.5438C22.5057 14.5415 21.0066 13.0061 19.025 12.9736C17.0433 12.941 15.4325 14.5839 15.464 16.599C15.4867 17.5094 15.8637 18.3761 16.5166 19.0187C17.1694 19.6613 18.0479 20.0304 18.9691 20.049C20.9651 20.0618 22.48 18.5519 22.4943 16.5438Z" fill="#131313"/>
<path d="M92.4174 22.5749C91.4409 22.5749 90.576 22.6683 89.7499 22.531C89.4019 22.473 88.9652 21.9749 88.8664 21.6013C88.5715 20.4791 88.0274 19.8735 86.7774 20.1324C86.5182 20.1862 86.2362 20.1409 85.9641 20.1409C84.0355 20.1409 84.0655 20.1537 83.3382 21.839C83.242 22.0163 83.1079 22.1706 82.9452 22.2914C82.7825 22.4121 82.595 22.4963 82.396 22.5381C81.64 22.6442 80.8582 22.5706 79.9619 22.5706C80.0664 22.1942 80.1223 21.9126 80.2225 21.648C81.4968 18.2419 82.7998 14.8485 84.0369 11.431C84.3233 10.6386 84.7528 10.4051 85.5661 10.4164C87.867 10.4518 87.8642 10.4164 88.6846 12.5942C89.7919 15.531 90.9006 18.4673 92.0107 21.4032C92.1353 21.7556 92.2527 22.1079 92.4174 22.5749ZM86.1603 13.8565L85.0234 17.1593H87.2886C86.9249 16.0923 86.5941 15.1273 86.1603 13.8565Z" fill="#131313"/>
<path d="M73.8824 22.5467H70.7939V10.418H73.8824V22.5467Z" fill="#131313"/>
</g>
<defs>
<clipPath id="clip0_338_2194">
<rect width="105" height="33" fill="white"/>
</clipPath>
</defs>
</svg>
