<svg width="156" height="45" viewBox="0 0 156 45" fill="none" xmlns="http://www.w3.org/2000/svg">
<path d="M5.18349 22.8246C4.86211 22.8246 4.52941 22.8759 4.22077 22.8104C3.91214 22.7449 3.64031 22.51 3.33167 22.4473C3.02304 22.3847 2.67193 22.4317 2.34064 22.4317C2.30666 21.5846 3.36565 20.8657 4.23776 21.2529C4.63418 21.4295 5.04899 21.5619 5.4539 21.7156L5.55159 21.522C5.33215 21.3796 5.10279 21.2601 4.89751 21.1035C4.73469 20.981 4.45437 20.7889 4.47278 20.6764C4.62143 19.9461 4.10043 20.0016 3.65447 19.9504C4.27457 19.3126 5.3194 19.3339 5.8673 19.9504C6.19434 20.3191 6.50298 20.7305 6.90223 21.001C7.60303 21.475 8.39302 21.3626 9.14054 21.0807C10.7304 20.4828 12.3019 19.8493 13.5294 18.5794C13.6965 18.4057 14.0065 18.373 14.2783 18.2648C14.3052 18.6791 14.2231 19.0677 14.3774 19.2927C14.519 19.4905 14.9112 19.5062 15.2269 19.6144L15.4761 19.1603C15.7592 19.3667 16.0197 19.6728 16.317 19.7197C16.5167 19.7511 16.7729 19.4137 17.0249 19.2229C17.1835 19.7753 17.6252 19.9418 18.2779 19.7012C18.2963 19.5347 18.3189 19.3339 18.3614 18.9581C18.7861 19.7895 19.3057 19.9219 19.9952 19.4891C19.9513 19.166 19.9046 18.8229 19.831 18.2705C20.2557 18.6492 20.5856 18.867 20.8121 19.1674C22.065 20.8358 23.7611 21.9591 25.5223 22.9627C26.9381 23.767 28.9966 23.1819 29.7087 21.9235C30.2977 20.8828 30.1589 19.6457 29.3236 18.6236C29.1014 18.3531 28.8451 18.1096 28.6073 17.8577C29.0603 17.2142 29.2486 17.1686 29.7243 17.7153C30.1052 18.158 30.3982 18.6791 30.7776 19.2357C31.1075 19.267 31.7899 18.9268 31.6611 19.8763C31.2363 19.8393 30.8498 19.892 31.0197 20.5326C31.3638 20.638 31.9796 20.5639 31.6795 21.3327C31.5294 21.3099 31.3567 21.2316 31.2392 21.2814C31.1578 21.3134 31.0836 21.3617 31.0213 21.4234C30.959 21.4851 30.9098 21.5588 30.8767 21.6402C30.8513 21.7441 31.0183 21.9249 31.1316 22.0302C31.3623 22.2438 31.6172 22.4288 31.8211 22.752C30.6417 22.3662 29.9551 23.1008 29.1056 23.6062C28.3652 24.0461 27.3982 24.0959 26.4256 24.3464L27.6913 24.8846L26.519 25.3373L27.5837 25.7999C27.3161 26.4263 26.8291 25.9836 26.4511 25.9978L26.3789 26.1957L27.5695 26.8206L27.0584 27.2904C27.3104 27.8243 27.7493 28.0535 28.3411 28.0563C29.3392 28.0563 29.6337 28.314 30.0174 29.2023C30.1589 29.5198 30.4789 29.7832 30.7748 29.9924C30.9985 30.1504 31.3836 30.1775 31.1613 30.5619C31.1047 30.6601 30.7366 30.5861 30.5086 30.5619C30.3722 30.5139 30.2254 30.5041 30.0839 30.5334L31.2533 31.7548L31.082 31.9598L29.4511 31.0772L29.335 31.2623C29.9367 31.7435 30.5384 32.2246 31.15 32.7115C30.9914 33.1144 30.9914 33.1144 29.9367 32.7329L31.201 33.9401L31.0268 34.1792L30.0145 33.7294C30.5256 35.0647 31.0863 36.3773 30.1561 37.798C30.2043 37.0307 29.7314 36.7873 29.0079 36.6392C28.8664 37.0136 28.6936 37.4108 28.5832 37.8237C28.4728 38.2365 28.4501 38.5753 28.0509 38.8928C27.8215 39.0736 27.9489 39.7128 27.9164 40.137L27.3246 39.7341C25.2094 41.2019 22.8749 41.8581 20.3704 42.0489C16.8041 42.3208 13.6002 41.1947 10.5025 39.5846C10.293 39.4765 10.0112 39.5078 9.76348 39.475C9.74932 39.7598 9.65871 40.0587 9.73941 40.3078C9.85267 40.6595 9.88099 40.9784 9.48599 41.0196C9.23682 41.0438 8.93526 40.8175 8.70732 40.641C8.62662 40.5783 8.6337 40.3007 8.69741 40.1655C9.11223 39.2786 9.54687 38.4016 9.98575 37.5261C10.2179 37.0635 10.4855 36.6179 10.7064 36.1495C10.746 36.0655 10.6101 35.9118 10.6101 35.7908C10.6101 35.5829 10.5846 35.2925 10.7021 35.1871C10.7909 35.1214 10.8941 35.0781 11.003 35.0608C11.1118 35.0434 11.2233 35.0526 11.3279 35.0875C11.417 35.1479 11.4895 35.23 11.5387 35.326C11.5879 35.422 11.6123 35.529 11.6096 35.637C11.5176 36.0266 11.3708 36.401 11.1736 36.7488C10.9244 37.2101 11.032 37.4492 11.502 37.6728C15.5157 39.5818 19.6313 40.0929 23.8999 38.6365C23.9891 38.6066 24.0811 38.5896 24.0089 38.6081C24.3727 37.9475 24.5752 37.2813 25.0127 36.8741C25.4204 36.4954 26.0801 36.3887 26.4935 36.2193C26.0688 36.0541 25.5747 35.7922 25.0509 35.6883C24.7946 35.637 24.4846 35.8804 24.2014 35.9872C24.1434 35.1814 25.1089 34.3842 25.9145 34.6206C26.1169 34.6789 26.3081 34.7871 26.5134 34.8327C27.5709 35.0747 28.3185 34.3472 28.1387 33.2596C28.0735 32.8653 28.0381 32.4624 27.939 32.0752C27.5341 30.4992 26.6479 29.8828 24.922 29.9967C24.8428 30.4565 24.7621 30.932 24.6743 31.4402L23.2812 30.5676C23.3152 30.5277 23.3619 30.4252 23.4298 30.4053C24.1759 30.2117 24.1972 29.6465 24.0896 29.0557C23.9946 28.6173 23.8731 28.1851 23.7257 27.7616C23.5275 27.1353 23.3166 26.5117 23.1042 25.8668L22.4997 26.0163C22.5832 26.1715 22.6413 26.301 22.712 26.405C23.0462 26.8975 22.94 27.2321 22.3779 27.4385C21.6861 27.6673 21.0061 27.931 20.3406 28.2286C19.2802 28.7454 19.1783 29.0685 19.3878 30.2216C19.436 30.4878 19.3553 30.9334 19.1726 31.0573C18.5568 31.4559 18.3147 32.031 18.1519 32.6887C18.1278 32.7855 18.0103 32.8567 17.8291 33.0461L17.4666 31.6751C17.3251 32.115 17.2543 32.3684 17.1835 32.6204C17.1127 32.8724 17.0419 33.0902 16.9655 33.3322L16.7885 33.2866L16.7248 32.0766L16.4742 32.0282C16.3128 32.553 16.1519 33.0793 15.9914 33.607L15.8399 33.6667L15.5101 32.4738L15.0386 34.0397L14.8376 33.9757L14.7215 32.935L12.3274 35.9758L12.2014 35.8534C12.2014 35.6228 12.251 35.3779 12.1915 35.1629C11.9522 34.2789 11.6804 34.1664 10.848 34.6248C10.4586 34.8398 10.1245 35.153 9.74083 35.3808C9.51855 35.5146 9.21841 35.5231 9.00463 35.6655C8.68795 35.9016 8.38583 36.1569 8.09996 36.4299C7.80548 35.8904 8.10987 35.3779 8.27693 34.7686C8.51336 33.9059 9.28637 34.175 9.88099 33.7308C9.24814 33.7023 8.77386 33.7023 8.30525 33.6482C8.11412 33.6255 7.82389 33.5287 7.7715 33.3906C7.46995 32.6119 6.99283 32.9165 6.51572 33.14C6.57235 32.4453 6.70827 32.2261 7.90034 32.0481C8.49779 31.9584 9.15895 32.2901 9.91921 32.461C9.68561 32.2702 9.51289 32.152 9.36848 32.0054C9.22408 31.8588 8.94375 31.6481 8.95367 31.4744C8.97349 30.7868 8.53885 30.7768 8.05466 30.7868C8.55017 30.1433 9.90647 30.1704 10.3567 30.8181C11.2854 32.1563 11.6875 32.293 13.167 31.6566C13.8179 31.3828 14.4449 31.0547 15.0414 30.6758C16.1287 29.9725 16.3581 29.3034 16.0749 27.9282L15.4704 28.3838C15.2963 27.8257 15.2991 27.8143 15.9872 26.8733C15.7493 26.5516 15.2892 26.2185 15.8923 25.7999C16.5039 26.6142 16.8536 26.6712 17.7427 26.1686C18.5228 25.7273 19.3255 25.3273 20.0943 24.8717C20.5997 24.5714 21.0613 24.4034 21.5681 24.8475C21.6191 24.8931 21.7663 24.8276 22.0339 24.792C21.1844 24.0389 20.2925 23.7229 19.3963 23.4083C18.5554 23.1122 17.7087 22.8275 16.8706 22.5242C16.3439 22.3335 16.1443 22.0331 16.4105 21.4409C16.5521 21.1163 16.4898 20.6935 16.5181 20.3162H16.3354C16.1656 20.9213 16.0084 21.5306 15.8173 22.1299C15.7663 22.2879 15.6092 22.4146 15.5016 22.557C15.3982 22.3762 15.251 22.2068 15.2057 22.0132C15.1703 21.8551 15.2552 21.6672 15.2864 21.4921L15.0981 21.4252C14.9268 21.8523 14.754 22.2794 14.5686 22.7492C14.1325 22.7961 14.1325 22.7961 13.9655 21.5007C13.797 21.8637 13.6384 22.2338 13.4544 22.5897C13.3481 22.7699 13.2304 22.943 13.1018 23.1079C12.9879 22.9021 12.8863 22.6896 12.7975 22.4716C12.7649 22.379 12.8272 22.2523 12.8456 22.1413L12.687 22.053C12.5455 22.3306 12.4039 22.6225 12.2326 22.883C12.0948 23.0612 11.9434 23.2283 11.7795 23.3827C11.7271 23.1591 11.662 22.9399 11.628 22.7136C11.6418 22.5791 11.612 22.4438 11.5431 22.3278L10.6257 23.7599L10.3907 23.6631V22.7207L7.45013 24.8561C7.30855 24.429 7.18963 24.0688 7.03531 23.6019C6.64338 23.7521 6.26006 23.9242 5.88712 24.1172C5.51195 24.3407 5.22313 24.6468 4.68939 24.5728C4.49118 24.5443 4.22219 25.0226 3.98151 25.2675C3.66296 24.9088 3.74791 24.923 3.93762 23.8524C4.09052 23.0211 4.86353 23.3955 5.18349 22.8246ZM24.6785 39.643C24.1434 39.5576 24.0485 38.8956 23.3463 39.1163C20.1297 40.127 16.8989 39.9975 13.7191 38.9013C12.8244 38.5938 11.9508 38.2194 11.226 37.9375L10.4459 39.0764C14.1934 42.2582 23.8404 42.6596 26.5983 39.69L24.956 38.9156L24.6785 39.643ZM24.8994 38.2194L24.83 38.4216L26.9296 39.4708C26.9791 38.6807 27.0216 38.0343 27.0556 37.4777L24.8994 38.2194Z" fill="#131313"/>
<path d="M15.019 17.7684L12.5626 18.1827C12.5258 18.0759 12.4904 17.9691 12.4536 17.8609C12.6901 17.7186 12.9166 17.5563 13.1615 17.4338C13.4064 17.3114 13.7094 17.2118 14.1129 17.0537C13.9502 17.0004 13.7924 16.9327 13.6414 16.8516C13.5296 16.769 13.3696 16.648 13.3696 16.5441C13.3851 16.4744 13.4177 16.4098 13.4645 16.3561C13.5112 16.3024 13.5706 16.2613 13.6372 16.2366C14.1851 16.1113 14.3819 15.7312 14.4867 15.2301C14.522 15.0579 14.6707 14.9041 14.7882 14.7589C14.9553 14.5539 15.1421 14.366 15.3205 14.171L15.2384 13.9816C14.6721 14.0158 14.0931 14.0243 13.5239 14.0884C12.6745 14.1823 11.8901 13.7695 11.7769 13.126C11.5843 12.0199 12.3432 11.4547 13.5098 11.8448C13.5227 11.9092 13.5227 11.9755 13.5098 12.0398C13.3909 12.2804 13.2592 12.5125 13.1318 12.7516C13.4418 12.894 13.742 13.099 14.0648 13.146C14.5985 13.2257 15.1549 13.146 15.6872 13.2285C16.3866 13.3353 17.0718 13.5318 17.7755 13.6912C17.9581 13.0705 17.5376 12.0982 16.9076 11.8975C16.2776 11.6967 15.8005 11.9871 15.4366 12.8783C14.9383 12.2249 14.4598 11.6184 14.0124 10.9906C13.9629 10.9172 13.9303 10.8337 13.9168 10.746C13.9033 10.6584 13.9094 10.5688 13.9345 10.4838C14.396 9.54994 14.893 8.63314 15.4352 7.59961C16.3356 8.0637 17.1596 8.49648 17.9935 8.90932C18.1584 9.0016 18.3489 9.03709 18.5357 9.0104C19.4602 8.76269 19.5607 8.85095 19.3724 9.63536C19.6178 9.84715 19.8438 10.0806 20.0478 10.3329C20.0789 10.3785 19.8283 10.6176 19.6754 10.8113C20.1341 11.5401 20.808 10.9337 21.4621 10.8995C21.1436 11.6469 20.5164 11.6398 19.9048 11.6697L19.8637 11.8761L21.1945 12.3943C21.1535 12.8456 21.2342 13.042 19.8722 12.6548L19.7915 12.8128L21.237 13.556C21.0827 14.0229 21.0827 14.0229 19.8977 13.751L19.8212 13.9119L21.2823 14.6792C21.1875 15.2088 21.1875 15.2088 19.725 14.9084L21.1931 16.1668C21.0374 16.6808 20.8363 16.7363 19.8977 16.3419C20.0747 17.3684 20.5574 17.6986 21.4225 17.3854C21.1393 18.3592 20.5291 18.4133 19.364 17.4523C19.4178 18.1542 19.4645 18.7507 19.514 19.387C19.0723 19.2318 19.0723 19.2318 18.3276 17.8752L17.8363 19.4141C17.0591 19.1294 17.4767 18.4005 17.2077 17.7769L16.3923 19.3358L16.2111 19.3799L15.9704 17.9705C15.6872 18.3022 15.4494 18.6026 15.1846 18.8774C15.0717 18.9593 14.9458 19.0214 14.8123 19.061C14.7712 18.9187 14.6707 18.7663 14.7018 18.6468C14.7919 18.3485 14.8977 18.0553 15.019 17.7684ZM15.5612 13.8393C15.5003 15.2629 16.2691 15.9533 17.1355 15.5305C17.6636 15.2728 17.7401 14.7461 17.2403 14.4813C16.7405 14.2165 16.1898 14.0727 15.5612 13.8393Z" fill="#131313"/>
<path d="M29.4669 11.1573L29.0422 12.03L28.8723 11.9972C28.8369 11.7837 28.8454 11.5459 28.752 11.3609C28.6741 11.2057 28.4773 11.1117 28.2904 10.9566C28.1489 11.3922 28.0441 11.7153 27.9153 12.1139C27.5019 11.7951 27.8912 10.9651 27.0658 11.1929C27.0205 11.4505 26.9724 11.7253 26.9242 12.0001H26.7699L26.5335 11.3395C25.7265 11.5559 25.1786 12.1111 25.18 12.8613C25.18 14.2636 25.4632 15.4153 27.5316 16.2353L27.5599 16.4474C27.2215 16.4759 26.8421 16.6182 26.5533 16.5114C25.0455 15.9605 24.0913 14.2038 24.407 12.6094C24.7043 11.1075 26.365 10.0469 27.6746 10.0469C29.0125 10.0469 30.1663 10.249 30.9719 11.5075C31.7775 12.766 31.3966 14.7647 30.4523 15.6359C29.8096 16.2281 29.1611 16.8161 28.4915 17.377C27.8218 17.9379 27.3858 18.6169 27.4212 19.5679C27.4396 20.0363 27.2583 20.5132 27.0417 20.9716L26.9186 19.7729L26.709 19.78C26.5722 20.2185 26.4344 20.6574 26.2956 21.0969L26.2079 21.0598L26.0762 19.7786L25.8199 19.7886C25.7322 20.1938 25.6439 20.6 25.5552 21.0072L25.432 20.9887C25.3655 20.516 25.3131 20.0405 25.2267 19.5651C25.0356 18.5244 25.5877 17.9194 26.4075 17.451C27.3674 16.9015 28.3442 16.3748 29.273 15.774C30.499 14.9797 30.9719 13.734 30.6066 12.4058C30.4495 11.8363 30.138 11.3893 29.4669 11.1573Z" fill="#131313"/>
<path d="M16.5367 3.95361L17.3691 5.53523L16.7165 6.38939L17.6396 6.5588L17.9227 7.03713C18.5853 6.73248 18.5938 6.62998 17.9723 5.91106C18.414 5.68756 18.8302 5.45124 19.2705 5.27614C19.3739 5.23485 19.6499 5.37579 19.6952 5.48968C19.8538 5.91676 19.9487 6.38085 20.0846 6.8905C19.5891 6.90901 18.9718 6.81647 19.2833 7.68487L19.8227 7.57668L20.6438 8.18313L20.7854 7.36314L20.6438 7.14105L22.5112 7.23216C21.918 7.93115 21.2866 8.7426 20.5801 9.48003C20.2743 9.79891 19.9416 9.70496 19.8439 9.1825C19.7193 8.51483 19.4362 8.37247 18.7424 8.52052C18.5205 8.57853 18.2863 8.56862 18.0699 8.49205C17.3422 8.16178 16.6273 7.79876 15.9265 7.41296C15.7849 7.33324 15.6122 7.07842 15.6433 6.94317C15.85 5.95804 16.1035 4.98288 16.3413 4.00486L16.5367 3.95361Z" fill="#131313"/>
<path d="M11.1732 8.74677L10.8504 6.91459L10.6706 6.94876C10.8051 8.08764 10.941 9.22652 11.084 10.4238L10.1652 10.6231C9.93019 8.73111 9.70367 6.90463 9.46582 4.99273L10.3889 4.92725C10.4101 5.09238 10.4413 5.22763 10.4441 5.36287C10.471 6.58574 10.4724 6.61279 11.7183 6.51314C12.6994 6.43484 13.6749 6.27824 14.6532 6.16151C14.8797 6.13446 15.109 6.13161 15.3483 6.11595C15.3596 6.24265 15.3681 6.30814 15.371 6.37505C15.4205 7.59934 14.6999 7.93389 13.6282 8.06344C12.7985 8.16309 12.0029 8.50618 11.1732 8.74677ZM11.3941 8.30118C12.5267 8.01646 13.5376 7.81004 14.5187 7.50254C14.7353 7.43421 14.8613 7.03418 14.9887 6.76796C15.0029 6.73807 14.741 6.48324 14.6234 6.49605C13.4908 6.61421 12.3582 6.76796 11.2171 6.91032C11.2454 7.17938 11.2653 7.3858 11.2907 7.59223C11.3162 7.79865 11.3559 8.03781 11.3941 8.30118Z" fill="#131313"/>
<path d="M19.9941 5.50953L22.9899 5.12516C25.5284 4.79916 28.0626 4.4461 30.6053 4.1685C31.1971 4.10302 31.8172 4.29805 32.4231 4.3735L32.45 4.69808C31.6402 4.94863 30.8445 5.2846 30.0149 5.43408C27.7072 5.8512 25.3854 6.19571 23.0678 6.5573C22.3032 6.67688 21.5359 6.78365 20.7671 6.85056C20.6256 6.86195 20.4019 6.684 20.3268 6.53737C20.1895 6.27258 20.1343 5.96366 19.9941 5.50953ZM31.3854 4.7778L31.3174 4.40482L20.4571 5.76151C20.5406 6.27258 20.6142 6.57866 21.1749 6.48897C23.937 6.04908 26.7049 5.65616 29.467 5.22339C30.114 5.12516 30.7469 4.9287 31.3854 4.7778Z" fill="#131313"/>
<path d="M4.67954 37.1562C4.10333 36.7292 4.50682 35.4323 5.30814 35.1632C5.61395 35.0607 5.92966 34.9881 6.12645 35.0493C6.32183 35.2415 6.48747 35.5063 6.72249 35.6074C7.19535 35.8095 7.58327 36.0245 7.76166 36.5669C7.84377 36.816 8.12126 36.9939 8.38034 37.2901C8.51059 36.9498 8.57997 36.7676 8.6635 36.5355L9.83858 37.1392L9.13919 38.3321C8.60262 38.0175 8.02357 37.6759 7.44028 37.3356C7.11465 37.1463 6.79044 36.9527 6.44925 36.7847C5.52192 36.3263 5.31522 36.3747 4.67954 37.1562Z" fill="#131313"/>
<path d="M9.36548 14.562C8.8643 15.6083 7.93131 15.4531 7.03938 15.4047C6.96506 15.3841 6.89334 15.355 6.8256 15.3179C6.8256 14.7001 6.8256 14.0452 6.8256 13.3904C6.8256 12.8465 6.88507 12.2928 6.80578 11.7618C6.66421 10.835 6.63164 10.835 7.58445 10.8079C8.029 10.7951 8.47214 10.8079 8.84873 10.8079C8.94642 11.6379 9.03136 12.4166 9.13188 13.1939C9.19134 13.6594 9.27346 14.1221 9.34566 14.5862L9.36548 14.562ZM7.22768 12.0778C7.19164 12.21 7.16515 12.3446 7.1484 12.4807C7.11442 13.0942 7.05354 13.7107 7.08044 14.3214C7.09035 14.5719 7.29422 15.0204 7.41598 15.0218C7.88601 15.0218 8.41975 15.3065 8.819 14.7214C9.21824 14.1363 8.87704 13.6252 8.78644 13.0985C8.5854 11.9226 8.47638 11.8714 7.22768 12.0778Z" fill="#131313"/>
<path d="M9.34463 14.5848C9.5439 14.6965 9.73336 14.8251 9.91094 14.9692C10.1672 15.2069 10.3895 15.4802 10.6953 15.8134C10.5141 15.9116 10.3229 16.1066 10.1389 16.0981C9.38144 16.0696 9.0898 16.5963 8.76134 17.1288C8.62967 17.3409 8.32104 17.6882 8.24317 17.6512C7.8411 17.4605 7.25214 17.2241 7.1587 16.8953C6.87555 15.8276 6.74954 15.6738 8.0393 15.6454C9.14784 15.6212 9.21722 15.5585 9.36162 14.562L9.34463 14.5848Z" fill="#131313"/>
<path d="M12.4891 17.193L12.1281 18.1326L13.1956 18.5183C12.6717 18.8885 12.1422 19.3355 11.5434 19.6473C11.3367 19.7555 10.8992 19.6088 10.6684 19.4394C10.0469 18.981 9.48061 18.4429 8.87891 17.9304C9.11817 16.6079 9.98462 16.1068 11.2107 16.6221C11.6849 16.8214 12.1493 17.0406 12.4891 17.193ZM12.0177 18.9412C11.9341 18.5895 11.777 18.2521 11.7925 17.9233C11.818 17.3268 11.5689 16.9396 11.0224 16.8997C10.5481 16.8641 10.0002 16.9139 9.59528 17.1332C9.2286 17.3325 9.0672 17.7767 9.62218 18.1297C9.99453 18.366 10.2989 18.7077 10.633 19.0024C11.3084 19.5974 11.3423 19.596 12.0177 18.9412Z" fill="#131313"/>
<path d="M6.6543 9.76346C7.40465 9.6809 8.21164 10.108 8.77794 9.2951C9.32159 8.5292 9.11064 7.79178 8.83457 7.03015L9.01154 6.9248C9.15312 7.1597 9.38813 7.38463 9.41786 7.63661C9.46296 8.17448 9.47053 8.71487 9.44052 9.25382C9.42353 10.0169 9.01579 10.4212 8.26543 10.4397C7.98228 10.4397 7.69913 10.4254 7.41598 10.4511C6.94878 10.4895 6.71234 10.2788 6.6543 9.76346Z" fill="#131313"/>
<path d="M5.87726 7.62663C5.90699 8.09641 5.93814 8.56478 5.98345 9.26092C5.54598 9.10432 5.15806 9.03172 4.85792 8.83384C4.71634 8.74273 4.65121 8.29145 4.75173 8.17186C5.00374 7.86864 5.37042 7.65937 5.69038 7.41309L5.87726 7.62663Z" fill="#131313"/>
<path d="M7.38179 7.34345L7.2487 9.27955L7.09863 9.26531V7.31641L7.38179 7.34345Z" fill="#131313"/>
<path d="M6.30664 9.19094L6.39159 7.45557L6.67474 7.46838C6.6417 8.04636 6.6082 8.62434 6.57422 9.20232L6.30664 9.19094Z" fill="#131313"/>
<path d="M8.07012 7.36308L7.97527 9.19098L7.8252 9.18101V7.35596L8.07012 7.36308Z" fill="#131313"/>
<path d="M35.5215 17.8604H36.1529L37.5177 22.9583L38.8896 17.8604H39.5125L37.8009 23.9733H37.2133L35.5215 17.8604Z" fill="#131313"/>
<path d="M42.4571 17.8247H43.0871L44.8837 23.9462H44.2537L43.7949 22.3503H41.7223L41.265 23.9405H40.6689L42.4571 17.8247ZM43.6392 21.8022L42.7671 18.7287L41.878 21.8022H43.6392Z" fill="#131313"/>
<path d="M46.9043 17.8604H47.5088V23.374H49.6254V23.9434H46.9043V17.8604Z" fill="#131313"/>
<path d="M52.0605 18.4239H50.748V17.8545H53.9859V18.4239H52.6664V23.939H52.0619L52.0605 18.4239Z" fill="#131313"/>
<path d="M56.042 17.8604H56.6465V23.9391H56.042V17.8604Z" fill="#131313"/>
<path d="M58.8828 20.9694V20.8384C58.8828 18.9365 59.7323 17.7734 60.9286 17.7734C62.1249 17.7734 62.9843 18.9365 62.9843 20.8299V20.9595C62.9843 22.8614 62.1348 24.0259 60.9286 24.0259C59.7224 24.0259 58.8828 22.8614 58.8828 20.9694ZM62.3628 20.9509V20.847C62.3628 19.281 61.7412 18.3457 60.9286 18.3457C60.1159 18.3457 59.5043 19.2753 59.5043 20.847V20.9509C59.5043 22.524 60.1174 23.4522 60.9286 23.4522C61.7398 23.4522 62.3628 22.524 62.3628 20.9509Z" fill="#131313"/>
<path d="M65.1602 17.8604H65.7477L68.1743 22.5411V17.8604H68.7619V23.9391H68.2394L65.7477 19.1359V23.9391H65.1602V17.8604Z" fill="#131313"/>
<path d="M71.1367 17.8604H74.056V18.4298H71.7427V20.5922H73.8238V21.1617H71.7427V23.3839H74.0914V23.9534H71.1367V17.8604Z" fill="#131313"/>
<path d="M76.168 21.9844V17.856H76.764V21.9844C76.764 22.9396 77.2128 23.4521 77.9377 23.4521C78.6625 23.4521 79.1042 22.9581 79.1042 22.0029V17.8602H79.7073V21.9759C79.7073 23.2955 78.9995 24.0258 77.9277 24.0258C76.856 24.0258 76.168 23.2955 76.168 21.9844Z" fill="#131313"/>
<path d="M81.6895 17.8604H82.3209L83.6857 22.9583L85.059 17.8604H85.6805L83.9703 23.9733H83.3884L81.6895 17.8604Z" fill="#131313"/>
<path d="M87.2432 20.9694V20.8384C87.2432 18.9365 88.0926 17.7734 89.2904 17.7734C90.4881 17.7734 91.3461 18.9365 91.3461 20.8299V20.9595C91.3461 22.8614 90.4966 24.0259 89.2904 24.0259C88.0841 24.0259 87.2432 22.8614 87.2432 20.9694ZM90.7231 20.9509V20.847C90.7231 19.281 90.1016 18.3457 89.2904 18.3457C88.4791 18.3457 87.8647 19.2753 87.8647 20.847V20.9509C87.8647 22.524 88.4777 23.4522 89.2904 23.4522C90.103 23.4522 90.7231 22.524 90.7231 20.9509Z" fill="#131313"/>
<path d="M93.0469 23.2869L93.4277 22.8014C93.7986 23.1659 94.2219 23.452 94.7316 23.452C94.8671 23.4594 95.0026 23.4388 95.1298 23.3914C95.2569 23.344 95.3731 23.2709 95.471 23.1766C95.569 23.0822 95.6466 22.9687 95.6992 22.8429C95.7517 22.7172 95.778 22.5819 95.7764 22.4455V22.427C95.7764 21.9999 95.5952 21.664 94.7047 21.1458C93.6004 20.5023 93.289 20.034 93.289 19.3392V19.3207C93.289 18.4523 93.9544 17.7847 94.9128 17.7847C95.4627 17.7853 95.9901 18.0037 96.381 18.3925L96.01 18.8695C95.6816 18.5577 95.3022 18.3484 94.8859 18.3484C94.2913 18.3484 93.8949 18.7655 93.8949 19.2695V19.278C93.8949 19.7549 94.1115 20.051 95.0431 20.6062C96.1403 21.2583 96.3824 21.7451 96.3824 22.4128V22.4299C96.3824 23.3339 95.6745 24.02 94.733 24.02C94.4173 24.0184 94.1052 23.9527 93.8155 23.8267C93.5257 23.7007 93.2643 23.5171 93.0469 23.2869Z" fill="#131313"/>
<path d="M99.3168 18.4239H98.0029V17.8545H101.242V18.4239H99.9213V23.939H99.3168V18.4239Z" fill="#131313"/>
<path d="M102.797 20.9694V20.8384C102.797 18.9365 103.646 17.7734 104.844 17.7734C106.042 17.7734 106.9 18.9365 106.9 20.8299V20.9595C106.9 22.8614 106.05 24.0259 104.844 24.0259C103.638 24.0259 102.797 22.8614 102.797 20.9694ZM106.277 20.9509V20.847C106.277 19.281 105.655 18.3457 104.844 18.3457C104.033 18.3457 103.418 19.2753 103.418 20.847V20.9509C103.418 22.524 104.031 23.4522 104.844 23.4522C105.657 23.4522 106.277 22.524 106.277 20.9509Z" fill="#131313"/>
<path d="M109.076 17.8604H109.662L112.09 22.5411V17.8604H112.678V23.9391H112.15L109.662 19.1359V23.9391H109.076V17.8604Z" fill="#131313"/>
<path d="M117.944 17.8604H118.549V21.2386L120.735 17.8604H121.443L119.672 20.5253L121.573 23.942H120.865L119.268 21.1019L118.55 22.161V23.942H117.946L117.944 17.8604Z" fill="#131313"/>
<path d="M124.803 17.8247H125.437L127.234 23.9462H126.604L126.145 22.3503H124.068L123.611 23.9405H123.015L124.803 17.8247ZM125.986 21.8022L125.113 18.7287L124.224 21.8022H125.986Z" fill="#131313"/>
<path d="M129.249 17.8604H129.837L132.263 22.5411V17.8604H132.851V23.9391H132.324L129.837 19.1359V23.9391H129.249V17.8604Z" fill="#131313"/>
<path d="M134.793 23.2869L135.174 22.8014C135.545 23.1659 135.968 23.452 136.478 23.452C136.613 23.4594 136.749 23.4388 136.876 23.3914C137.003 23.3441 137.119 23.2709 137.217 23.1766C137.315 23.0822 137.393 22.9687 137.445 22.8429C137.498 22.7172 137.524 22.5819 137.523 22.4455V22.427C137.523 21.9999 137.341 21.664 136.452 21.1458C135.347 20.5023 135.036 20.034 135.036 19.3392V19.3207C135.036 18.4523 135.702 17.7847 136.66 17.7847C137.21 17.7853 137.738 18.0037 138.128 18.3925L137.753 18.8666C137.425 18.5548 137.045 18.3456 136.631 18.3456C136.035 18.3456 135.64 18.7627 135.64 19.2666V19.2752C135.64 19.7521 135.856 20.0482 136.789 20.6034C137.885 21.2554 138.127 21.7423 138.127 22.4099V22.427C138.127 23.331 137.419 24.0172 136.478 24.0172C136.162 24.0157 135.851 23.9502 135.561 23.8247C135.272 23.6993 135.01 23.5163 134.793 23.2869Z" fill="#131313"/>
<path d="M140.242 17.8604H140.847V23.374H142.963V23.9434H140.242V17.8604Z" fill="#131313"/>
<path d="M145.001 17.8604H145.605V23.9391H145.001V17.8604Z" fill="#131313"/>
<path d="M149.475 17.8247H150.106L151.901 23.9462H151.271L150.814 22.3503H148.741L148.283 23.9405H147.687L149.475 17.8247ZM150.658 21.8022L149.788 18.7287L148.898 21.8022H150.658Z" fill="#131313"/>
</svg>
