<svg width="120" height="21" viewBox="0 0 120 21" fill="none" xmlns="http://www.w3.org/2000/svg">
<path d="M28.3283 6.70764C28.3339 6.65663 28.3293 6.60502 28.3149 6.55577C28.3006 6.50652 28.2766 6.46059 28.2445 6.4206C28.2124 6.38062 28.1728 6.34736 28.1278 6.32272C28.0829 6.29809 28.0336 6.28256 27.9826 6.27703C27.9546 6.27481 27.9265 6.27481 27.8984 6.27703H27.0586V4.104H29.5604C30.4977 4.104 30.89 4.51464 30.89 5.43579V9.7663H31.8672C32.3769 9.7663 32.7536 9.72635 32.9752 9.32237L35.7695 4.1151H38.5837L35.4548 9.81957C35.0249 10.6031 34.5684 10.8384 34.5684 10.8384V10.8761C34.5684 10.8761 35.0382 10.9938 35.4681 11.835L37.2276 15.3864C37.4226 15.7993 37.7549 15.8304 38.2048 15.8304H38.5748V18.0034H37.1101C36.073 18.0034 35.6254 17.8658 35.1756 16.9668L32.922 12.4055C32.6871 11.9615 32.2572 11.9349 31.7099 11.9349H30.8877V18.0034H28.3283V6.70764Z" fill="#131313"/>
<path d="M50.005 3.86865C54.089 3.86865 57.178 6.97615 57.178 10.956C57.178 15.0468 54.089 18.2386 50.005 18.2386C45.9211 18.2386 42.832 15.0468 42.832 10.956C42.832 6.98059 45.9211 3.86865 50.005 3.86865ZM50.005 15.8547C52.5068 15.8547 54.5189 13.7394 54.5189 10.9715C54.5189 8.30793 52.5068 6.27252 50.005 6.27252C47.5032 6.27252 45.4912 8.31015 45.4912 10.9715C45.4912 13.7349 47.5032 15.8547 50.005 15.8547Z" fill="#131313"/>
<path d="M62.0264 15.8304H62.6313C62.6839 15.8346 62.7367 15.8284 62.7869 15.8122C62.837 15.796 62.8835 15.77 62.9236 15.7358C62.9637 15.7016 62.9967 15.6598 63.0207 15.6128C63.0447 15.5658 63.0592 15.5145 63.0634 15.4619C63.0656 15.4412 63.0656 15.4204 63.0634 15.3997L63.9609 4.104H66.62L69.4719 10.7207C69.8043 11.5243 70.1567 12.5808 70.1567 12.5808H70.1965C70.1965 12.5808 70.5489 11.5243 70.8791 10.7207L73.7332 4.104H76.3923L77.2898 15.3997C77.3097 15.675 77.4471 15.8304 77.7197 15.8304H78.3268V18.0034H76.1109C75.1935 18.0034 74.881 17.6127 74.8013 16.6716L74.3315 10.4855C74.2868 9.76863 74.2809 9.04989 74.3138 8.33242H74.2739C74.0566 9.06265 73.8022 9.78128 73.5116 10.4855L71.2114 15.615H69.1373L66.835 10.4855C66.5433 9.77488 66.2889 9.04955 66.0727 8.31244H66.035C66.0682 9.0366 66.0616 9.76204 66.0151 10.4855L65.5719 16.6716C65.4921 17.6127 65.1597 18.0034 64.2423 18.0034H62.0264V15.8304Z" fill="#131313"/>
<path d="M84.5249 6.27703H83.2529V4.104H89.606C92.2053 4.104 94.0224 5.92411 94.0224 8.62541C94.0224 11.3267 92.2053 13.2067 89.606 13.2067H87.0865V18.0034H84.5249V6.27703ZM89.1363 11.0137C90.5833 11.0137 91.4032 10.0748 91.4032 8.62541C91.4032 7.17598 90.5833 6.27703 89.1761 6.27703H87.0865V11.0137H89.1363Z" fill="#131313"/>
<path d="M100.258 6.27703H98.9883V4.104H105.341C107.938 4.104 109.758 5.92411 109.758 8.62541C109.758 11.3267 107.938 13.2067 105.341 13.2067H102.82V18.0034H100.258V6.27703ZM104.872 11.0137C106.316 11.0137 107.139 10.0748 107.139 8.62541C107.139 7.17598 106.316 6.27703 104.909 6.27703H102.82V11.0137H104.872Z" fill="#131313"/>
<path d="M114.802 15.8304H116.189V6.28591H114.802V4.104H120V6.27703H118.613V15.8215H120V17.9945H114.802V15.8304Z" fill="#131313"/>
<path d="M6.20464 10.4989C6.2036 10.012 6.29881 9.52961 6.48479 9.0797C6.67077 8.62978 6.94383 8.2212 7.28824 7.87752L15.1415 2.13446e-05H2.89181C2.51257 -0.00143969 2.13678 0.0721185 1.786 0.216476C1.43521 0.360833 1.11633 0.573148 0.847659 0.84124C0.578984 1.10933 0.3658 1.42792 0.220337 1.77874C0.074875 2.12955 -2.80494e-06 2.50568 0 2.88555L0 18.1034C0 18.8687 0.303504 19.6026 0.843745 20.1438C1.38399 20.6849 2.11671 20.9889 2.88073 20.9889H15.1415L7.27716 13.1225C6.93489 12.7774 6.66397 12.368 6.47992 11.9178C6.29588 11.4676 6.20233 10.9854 6.20464 10.4989Z" fill="#131313"/>
<path d="M20.7859 1.90223C20.584 1.34425 20.2152 0.862201 19.7298 0.521793C19.2444 0.181385 18.6661 -0.000822858 18.0736 2.79362e-06H17.8298C17.6677 2.46743e-06 17.5059 0.0156117 17.3467 0.0466152C17.267 0.0621527 17.1872 0.0821294 17.1074 0.104326C16.7012 0.225842 16.3318 0.44711 16.0327 0.748021L8.09738 8.69655C7.86093 8.93337 7.67336 9.21453 7.5454 9.52397C7.41743 9.83341 7.35156 10.1651 7.35156 10.5C7.35156 10.8349 7.41743 11.1666 7.5454 11.476C7.67336 11.7855 7.86093 12.0666 8.09738 12.3035L16.0327 20.252C16.3318 20.5529 16.7012 20.7742 17.1074 20.8957C17.1872 20.9179 17.267 20.9379 17.3467 20.9534C17.5059 20.9844 17.6677 21 17.8298 21C17.9919 21 18.1537 20.9844 18.3129 20.9534C18.1537 20.9844 17.9919 21 17.8298 21H18.0669C18.6616 21.0015 19.2422 20.8187 19.7291 20.4765C20.2159 20.1343 20.585 19.6496 20.7859 19.0889C20.9051 18.771 20.9659 18.4341 20.9654 18.0945V2.89663C20.9659 2.55703 20.9051 2.22014 20.7859 1.90223Z" fill="#131313"/>
</svg>
