<svg width="141" height="19" viewBox="0 0 141 19" fill="none" xmlns="http://www.w3.org/2000/svg">
<path d="M22.9343 9.11093C23.4019 9.3862 23.8245 9.60101 24.2118 9.86991C24.9188 10.36 25.3704 10.9646 25.2933 11.9098C25.2256 12.8633 25.2256 13.8203 25.2933 14.7739C25.335 15.4819 25.0169 15.9449 24.501 16.3411C23.4681 17.1487 22.205 17.6145 20.8902 17.6729C17.8033 17.7923 14.7115 17.7684 11.623 17.8066C11.173 17.8066 11.0316 17.5791 11.0332 17.1701C11.0332 15.9784 11.0332 14.7834 11.0332 13.5932C11.0332 9.77444 11.0332 5.95885 11.0332 2.14644C11.0332 1.3079 11.067 1.27608 11.917 1.27608C14.5058 1.27608 17.0962 1.27608 19.685 1.27608C21.1015 1.24428 22.49 1.66926 23.6413 2.48695C24.2439 2.91815 24.6055 3.45119 24.5396 4.24995C24.4761 5.10271 24.4761 5.95895 24.5396 6.81171C24.5959 7.58183 24.2616 8.10214 23.6944 8.5413C23.4517 8.7211 23.2171 8.89612 22.9343 9.11093ZM17.5349 14.4429C18.0363 14.4429 18.5377 14.4429 19.039 14.4429C20.5897 14.4254 21.0284 13.956 21.0766 12.4476C21.0975 11.7586 20.7713 11.4117 20.196 11.2128C19.8964 11.1009 19.5807 11.0364 19.2608 11.0219C18.1182 10.9996 16.9757 11.0219 15.8332 11.0076C15.4764 11.0076 15.3286 11.1174 15.3382 11.4849C15.3591 12.3171 15.3639 13.1525 15.3382 13.9846C15.3382 14.3681 15.4989 14.462 15.846 14.4524C16.4133 14.4318 16.9741 14.4429 17.5349 14.4429ZM15.3736 4.58886C15.3736 5.54356 15.3607 6.51257 15.3913 7.47681C15.3913 7.58183 15.6484 7.76322 15.7898 7.768C16.754 7.79345 17.7181 7.86346 18.6726 7.768C19.91 7.63116 20.3423 7.43863 20.2041 6.17684C20.1984 6.07773 20.1984 5.9784 20.2041 5.87929C20.2041 5.02007 20.0241 4.68752 19.1419 4.61591C17.9142 4.51408 16.6736 4.58886 15.3736 4.58886Z" fill="#131313"/>
<path d="M124.45 17.6938C124.146 17.7304 123.968 17.767 123.799 17.7685C122.755 17.7685 121.71 17.7685 120.666 17.7685C120.445 17.7817 120.225 17.733 120.032 17.628C119.838 17.523 119.678 17.366 119.57 17.175C118.861 16.0612 118.124 14.9792 117.408 13.8702C117.147 13.4613 116.84 13.2449 116.325 13.2926C115.865 13.338 115.402 13.338 114.942 13.2926C114.299 13.2258 114.138 13.5138 114.159 14.0882C114.185 15.062 114.134 16.0374 114.175 17.0112C114.203 17.6301 113.955 17.8067 113.372 17.7876C112.449 17.7526 111.524 17.767 110.601 17.7876C110.119 17.7876 109.933 17.6015 109.935 17.1114C109.956 12.0399 109.965 6.9683 109.96 1.89676C109.96 1.39395 110.134 1.18233 110.659 1.18551C113.19 1.20142 115.726 1.10754 118.251 1.21892C120.34 1.30962 122.136 2.18317 123.418 3.88729C123.633 4.19141 123.754 4.55066 123.767 4.92155C123.806 6.23266 123.713 7.55014 123.798 8.85807C123.87 9.97188 123.359 10.7675 122.602 11.4612C122.334 11.7009 122.049 11.921 121.749 12.1199C121.09 12.5702 121.085 12.5655 121.538 13.2513L124.018 16.9921C124.142 17.1846 124.259 17.3835 124.45 17.6938ZM114.238 7.23509C114.238 7.89065 114.252 8.54779 114.238 9.20176C114.227 9.56773 114.363 9.69979 114.72 9.68706C115.221 9.66797 115.724 9.70616 116.226 9.67911C116.901 9.64251 117.597 9.64887 118.246 9.48817C119.146 9.267 119.391 8.8517 119.391 7.94793C119.365 7.55098 119.368 7.15263 119.401 6.75615C119.541 5.86988 119.038 5.42435 118.318 5.13635C117.969 4.98555 117.598 4.89152 117.219 4.8579C116.378 4.81335 115.533 4.84358 114.691 4.82289C114.357 4.82289 114.22 4.92791 114.23 5.26842C114.254 5.92397 114.238 6.57953 114.238 7.23509Z" fill="#131313"/>
<path d="M91.8567 9.46589C91.8567 7.95429 91.8792 6.44269 91.8455 4.93268C91.8354 4.66539 91.8817 4.39895 91.9816 4.15043C92.0815 3.90191 92.2327 3.6768 92.4256 3.4895C94.0984 1.75037 96.1505 0.865688 98.5738 0.749533C100.997 0.633379 103.147 1.19983 105.037 2.70506C105.146 2.79258 105.252 2.88327 105.358 2.97238C106.221 3.68203 106.634 4.51103 106.591 5.70121C106.488 8.48096 106.568 11.2703 106.53 14.0484C106.512 14.4548 106.364 14.845 106.107 15.1622C104.855 16.6484 103.228 17.549 101.323 17.9579C97.9326 18.6819 94.9726 17.8911 92.4851 15.4741C92.2697 15.281 92.1003 15.043 91.9891 14.7771C91.8779 14.5113 91.8278 14.2244 91.8423 13.937C91.8825 12.4477 91.8567 10.9568 91.8567 9.46589ZM95.7825 9.32905C95.7825 10.3426 95.7616 11.3578 95.797 12.3713C95.8123 12.6399 95.9207 12.8951 96.1039 13.0937C97.6434 14.6515 100.547 14.7008 102.128 13.186C102.362 12.9537 102.502 12.6457 102.524 12.3188C102.554 10.35 102.554 8.38125 102.524 6.41246C102.503 6.10658 102.37 5.81864 102.151 5.60256C100.627 4.20393 97.849 4.17052 96.2533 5.49754C96.0998 5.60698 95.9765 5.753 95.8951 5.9221C95.8136 6.0912 95.7766 6.27792 95.7873 6.46497C95.8034 7.41966 95.7825 8.37436 95.7825 9.32905Z" fill="#131313"/>
<path d="M42.3237 7.49278C42.3237 5.66295 42.3382 3.83312 42.3157 2.00488C42.3157 1.46071 42.5181 1.25704 43.0597 1.27136C43.9837 1.29523 44.9077 1.30636 45.8301 1.27136C46.4069 1.2459 46.5451 1.48617 46.5419 2.00806C46.5243 5.01058 46.5741 8.01309 46.513 11.014C46.4873 12.2567 47.1285 12.9489 48.1328 13.4007C48.6458 13.6385 49.2069 13.7568 49.7732 13.7466C50.3394 13.7363 50.8958 13.5979 51.3997 13.3419C52.3527 12.8836 52.9537 12.2281 52.9247 11.0204C52.8524 8.07992 52.9006 5.1331 52.9038 2.19423C52.9038 1.28091 52.9038 1.27931 53.8519 1.27772C54.755 1.27772 55.6581 1.29523 56.5613 1.27772C57.0208 1.26659 57.204 1.41934 57.204 1.89191C57.1896 5.60885 57.1944 9.32738 57.1767 13.0443C57.1633 13.3206 57.0816 13.5894 56.9389 13.8272C55.4782 16.373 53.3249 17.8544 50.3199 18.0549C47.0304 18.2745 44.4963 17.0349 42.7833 14.2472C42.5069 13.7714 42.3539 13.2351 42.3382 12.6863C42.2883 10.952 42.3237 9.22873 42.3237 7.49278Z" fill="#131313"/>
<path d="M61.3264 9.53436C61.3264 7.04897 61.3264 4.56359 61.3264 2.0782C61.3264 1.31285 61.3649 1.28262 62.1539 1.28262C65.5285 1.28262 68.9031 1.29376 72.2777 1.27148C72.8867 1.27148 73.1037 1.46879 73.0683 2.06706C73.0322 2.76194 73.0322 3.45819 73.0683 4.15307C73.0924 4.67974 72.8739 4.85318 72.3629 4.8484C70.4153 4.83408 68.466 4.8484 66.5184 4.8484C65.633 4.8484 65.633 4.8484 65.6282 5.74423C65.6282 6.12292 65.6282 6.50002 65.6282 6.87872C65.6282 7.68384 65.6282 7.7093 66.4734 7.72044C68.0193 7.74113 69.5652 7.72999 71.1111 7.73317C71.9997 7.73317 72.0013 7.73317 72.0045 8.63217C72.0045 9.20817 71.9804 9.78735 72.0045 10.3618C72.0318 10.8773 71.8438 11.0682 71.3119 11.0619C69.6648 11.0412 68.0177 11.0762 66.3722 11.046C65.8001 11.0348 65.5687 11.2051 65.6137 11.7858C65.6515 12.3219 65.6515 12.86 65.6137 13.3961C65.5783 13.926 65.7631 14.1535 66.3208 14.1455C67.7252 14.1296 69.1313 14.1455 70.5374 14.1551C71.1802 14.1551 71.8229 14.1678 72.4657 14.1551C72.8594 14.1455 73.0651 14.2681 73.0571 14.6961C73.041 15.5505 73.0442 16.4066 73.0571 17.261C73.0571 17.6413 72.8964 17.8068 72.5171 17.8036C72.0351 17.8036 71.553 17.8036 71.0709 17.8036C68.1184 17.8036 65.1664 17.8036 62.215 17.8036C61.3505 17.8036 61.3248 17.7781 61.3248 16.9428C61.3237 14.4691 61.3242 11.9996 61.3264 9.53436Z" fill="#131313"/>
<path d="M139.878 12.8197C139.86 13.0182 139.86 13.2178 139.878 13.4164C140.17 15.0075 139.214 15.9622 138.057 16.7403C135.202 18.6656 129.876 18.8565 127.08 15.3082C127.056 15.2764 127.03 15.2462 127.005 15.216C126.362 14.4363 126.391 14.3313 127.305 13.8921C127.847 13.6312 128.401 13.3957 128.933 13.1156C129.389 12.8754 129.724 12.9326 130.106 13.3018C131.433 14.5843 132.999 14.9057 134.766 14.3615C135.321 14.1912 135.57 13.8842 135.56 13.2811C135.536 11.8857 135.56 11.8793 134.185 11.5149C132.944 11.1871 131.686 10.9166 130.46 10.5427C129.788 10.3458 129.148 10.0526 128.562 9.67236C127.609 9.0359 126.94 8.19418 127.095 6.93557C127.144 6.56003 127.144 6.17981 127.095 5.80426C126.871 4.21311 127.689 3.15817 128.862 2.2719C131.755 0.101559 136.415 0.47389 138.907 3.06747C140.251 4.4661 140.231 4.58544 138.543 5.41443L138.382 5.49399C136.981 6.17978 136.981 6.17978 135.811 5.15984C134.787 4.2688 132.873 4.11445 131.758 4.87344C131.654 4.95516 131.568 5.05647 131.505 5.17147C131.441 5.28647 131.401 5.41287 131.387 5.54331C131.295 7.01513 131.368 7.12333 132.804 7.5243C133.71 7.7773 134.657 7.90459 135.55 8.19259C136.6 8.51247 137.621 8.91637 138.604 9.40028C139.479 9.85057 140.037 10.5968 139.868 11.6915C139.843 12.0673 139.846 12.4444 139.878 12.8197Z" fill="#131313"/>
<path d="M77.1499 9.45959C77.1499 7.01345 77.1499 4.56785 77.1499 2.12277C77.1499 1.3431 77.2142 1.27787 78.016 1.27787C81.3697 1.27787 84.7218 1.289 88.0755 1.26514C88.6862 1.26514 88.9015 1.45767 88.8661 2.06071C88.8284 2.73591 88.8284 3.41265 88.8661 4.08785C88.8951 4.6543 88.6829 4.85956 88.1044 4.85319C86.1761 4.82933 84.2478 4.84365 82.3194 4.85319C81.4501 4.85319 81.4485 4.85319 81.4469 5.71083C81.4469 6.40616 81.4838 7.10468 81.4356 7.79683C81.3906 8.40943 81.6574 8.61469 82.2278 8.6131C83.7335 8.60514 85.2392 8.6131 86.745 8.6131C87.9839 8.6131 87.9068 8.47148 87.9116 9.77464C87.9116 10.3109 87.8923 10.8487 87.9116 11.3849C87.9325 11.8766 87.7172 12.0548 87.2335 12.0516C85.5863 12.0389 83.9408 12.0516 82.2937 12.0516C81.4469 12.0516 81.4452 12.0516 81.4436 12.8694C81.4436 14.2808 81.426 15.6937 81.4436 17.1051C81.4533 17.6127 81.2958 17.8227 80.7591 17.8052C79.7949 17.775 78.8307 17.7861 77.8666 17.8052C77.3315 17.8052 77.1242 17.5856 77.129 17.0478C77.1595 14.5083 77.1499 11.9832 77.1499 9.45959Z" fill="#131313"/>
<path d="M28.4978 9.52138C28.4978 7.03705 28.4978 4.55326 28.4978 2.06999C28.4978 1.33488 28.5508 1.28396 29.2771 1.27441C30.161 1.27441 31.0448 1.27441 31.927 1.27441C32.8092 1.27441 32.798 1.27441 32.7996 2.12091V13.1508C32.7996 14.193 32.8414 14.2407 33.9244 14.2455C35.5892 14.2455 37.2556 14.2662 38.9204 14.2455C39.4555 14.2455 39.6275 14.4333 39.6082 14.9424C39.5793 15.7157 39.5905 16.4922 39.6082 17.2655C39.6082 17.6379 39.4684 17.8097 39.0795 17.8097C35.7692 17.8033 32.4584 17.8033 29.147 17.8097C28.5942 17.8097 28.493 17.5074 28.4962 17.0412C28.5042 14.5287 28.4978 12.0259 28.4978 9.52138Z" fill="#131313"/>
<path d="M7.4213 4.2578C7.4213 4.43601 7.4213 4.61581 7.4213 4.79402C7.4213 6.03672 6.99546 6.63022 5.81435 7.06142C4.23633 7.63742 2.64063 7.26191 1.54148 6.02558C1.37368 5.81431 1.27301 5.55846 1.25223 5.29046C1.20884 4.79721 1.28598 4.29599 1.23134 3.80273C1.07064 2.38342 1.79377 1.89335 2.83829 1.48124C3.3859 1.25257 3.97826 1.14817 4.57192 1.1757C5.16558 1.20324 5.74549 1.362 6.26912 1.64035C7.07259 2.06201 7.54021 2.65392 7.42291 3.60066C7.40944 3.81949 7.40891 4.03891 7.4213 4.2578ZM5.57652 4.24826C5.57652 3.31425 5.26799 2.97533 4.36971 2.96579C3.40554 2.94987 3.08415 3.29197 3.08415 4.35168C3.08415 5.10748 3.50999 5.50845 4.32632 5.51482C5.18122 5.52277 5.57331 5.12817 5.57652 4.24826Z" fill="#131313"/>
</svg>
