<svg width="86" height="15" viewBox="0 0 86 15" fill="none" xmlns="http://www.w3.org/2000/svg">
<path d="M17.9736 7.17448C17.9739 6.84072 17.997 6.50737 18.0426 6.17677H32.1862C32.3229 7.15169 32.2585 8.14445 31.9969 9.09327C31.7352 10.0421 31.282 10.9266 30.6654 11.6919C30.0488 12.4571 29.282 13.0867 28.4127 13.5414C27.5434 13.996 26.5903 14.2661 25.6126 14.3347C24.635 14.4033 23.6537 14.2691 22.73 13.9403C21.8062 13.6115 20.9597 13.0952 20.2431 12.4235C19.5265 11.7519 18.9553 10.9392 18.5648 10.0362C18.1744 9.13314 17.9731 8.15903 17.9736 7.17448ZM18.6008 4.22818C19.1658 2.96828 20.081 1.89909 21.2363 1.14904C22.3916 0.398991 23.7378 0 25.1134 0C26.4889 0 27.8352 0.398991 28.9905 1.14904C30.1458 1.89909 31.0609 2.96828 31.626 4.22818H18.6008Z" fill="#131313"/>
<path d="M11.5347 6.18369C11.6622 6.18696 11.7891 6.16497 11.9081 6.11897C12.0271 6.07298 12.136 6.00388 12.2284 5.91563C12.3209 5.82738 12.3951 5.72169 12.4469 5.60462C12.4987 5.48754 12.527 5.36137 12.5303 5.23329C12.5335 5.10522 12.5116 4.97775 12.4659 4.85818C12.4201 4.7386 12.3513 4.62926 12.2634 4.53639C12.1756 4.44351 12.0704 4.36893 11.9539 4.3169C11.8373 4.26488 11.7117 4.23642 11.5842 4.23315H2.46744L3.52367 0.354492H12.0463C13.316 0.372572 14.5276 0.891974 15.4192 1.80039C16.3107 2.7088 16.8105 3.93323 16.8105 5.20891C16.8105 6.48459 16.3107 7.70902 15.4192 8.61743C14.5276 9.52584 13.316 10.0452 12.0463 10.0633H8.51359L7.01758 10.0692C6.81471 10.0763 6.61771 10.1395 6.44831 10.2519C6.2789 10.3642 6.14365 10.5214 6.05746 10.706L5.96038 11.0454L5.19151 13.9352H0.838437C0.718518 13.9303 0.600883 13.9007 0.492868 13.8481C0.384853 13.7955 0.288775 13.7212 0.210624 13.6297C0.132472 13.5382 0.0739249 13.4315 0.0386318 13.3162C0.00333872 13.201 -0.007943 13.0797 0.00549013 12.9599L1.85001 6.16809L11.5347 6.18369Z" fill="#131313"/>
<path d="M36.2623 0.354492H41.7085L40.6406 4.22925H35.208L36.2623 0.354492Z" fill="#131313"/>
<path d="M45.1681 9.66141C45.4262 9.66191 45.6736 9.76458 45.8568 9.94714C46.04 10.1297 46.1442 10.3775 46.1467 10.6367L45.0837 13.938H33.604C33.4845 13.9337 33.3673 13.9048 33.2594 13.8531C33.1515 13.8014 33.0554 13.7281 32.9768 13.6376C32.8983 13.5471 32.8391 13.4414 32.8029 13.327C32.7666 13.2126 32.7541 13.0919 32.7662 12.9725L34.6534 6.17969H40.0899L39.4103 8.68906C39.3965 8.81308 39.4092 8.93862 39.4475 9.05733C39.4858 9.17604 39.5488 9.28518 39.6324 9.37748C39.716 9.46977 39.8182 9.5431 39.9323 9.59256C40.0463 9.64203 40.1695 9.6665 40.2937 9.66433H45.1691L45.1681 9.66141Z" fill="#131313"/>
<path d="M56.6142 0.354492H61.1177L61.7079 4.22925H53.6348L56.6142 0.354492Z" fill="#131313"/>
<path d="M62.0244 6.17578L63.1893 13.935H57.7393L57.282 10.7693C57.2256 10.5667 57.1059 10.3876 56.9406 10.2584C56.7753 10.1292 56.573 10.0567 56.3636 10.0515H55.3404C55.1573 10.0535 54.9768 10.0961 54.812 10.1764C54.6472 10.2566 54.5021 10.3725 54.3871 10.5157L51.7659 13.935H47.8196C47.6972 13.9342 47.5764 13.9075 47.4649 13.8567C47.3534 13.8059 47.2538 13.7321 47.1726 13.6401C47.0913 13.5482 47.0301 13.4401 46.9931 13.3229C46.9561 13.2057 46.944 13.082 46.9576 12.9598L52.1659 6.17383L62.0244 6.17578Z" fill="#131313"/>
<path d="M76.0953 6.18369C76.3528 6.19042 76.6024 6.09412 76.7891 5.91597C76.9759 5.73783 77.0846 5.49244 77.0913 5.23378C77.098 4.97512 77.0022 4.72438 76.8248 4.53673C76.6475 4.34908 76.4033 4.23987 76.1458 4.23315H67.0319L68.0852 0.354492H76.6079C77.6933 0.35445 78.7472 0.721509 79.5996 1.39653C80.4521 2.07155 81.0536 3.01522 81.3071 4.0755C81.5606 5.13578 81.4514 6.25093 80.9971 7.24128C80.5428 8.23162 79.7699 9.03949 78.8029 9.53473L80.1863 13.9352H74.7371L73.6984 10.7694C73.6487 10.5901 73.5493 10.4286 73.4118 10.3038C73.2743 10.1789 73.1044 10.0959 72.9217 10.0643H71.583C71.5134 10.0661 71.4441 10.0749 71.3762 10.0906L70.7753 10.4593C70.7136 10.5326 70.662 10.614 70.6219 10.7012L70.5248 11.0405L69.755 13.9303H65.4C65.2801 13.9253 65.1626 13.8955 65.0547 13.8429C64.9468 13.7903 64.8508 13.716 64.7728 13.6245C64.6947 13.533 64.6363 13.4263 64.6011 13.3111C64.5658 13.196 64.5546 13.0747 64.568 12.955L66.4125 6.16321L76.0953 6.18369Z" fill="#131313"/>
<path d="M83.972 12.2206V11.5672H84.4982C84.7234 11.5672 84.9564 11.6013 84.9564 11.89C84.9564 12.2635 84.5749 12.2206 84.3147 12.2206H83.972ZM84.6225 12.3981C84.9486 12.3903 85.2001 12.2547 85.2001 11.8929C85.2001 11.5877 85.037 11.4053 84.5496 11.4053H83.7468V13.2495H83.972V12.3981H84.3856L84.9098 13.2495H85.1778L84.6225 12.3981ZM84.3594 13.7635C83.5565 13.7635 82.9701 13.1364 82.9701 12.324C82.9701 11.5116 83.5526 10.8952 84.3594 10.8952C85.1661 10.8952 85.7379 11.5223 85.7379 12.324C85.7379 13.1257 85.1554 13.7635 84.3594 13.7635ZM84.3594 13.9819C84.6844 13.981 85.0019 13.8833 85.2717 13.7013C85.5416 13.5193 85.7517 13.2611 85.8757 12.9592C85.9996 12.6574 86.0318 12.3254 85.9682 12.0052C85.9045 11.685 85.7479 11.3909 85.5181 11.16C85.2882 10.9291 84.9955 10.7717 84.6767 10.7078C84.358 10.6438 84.0275 10.6762 83.727 10.8007C83.4266 10.9252 83.1695 11.1363 82.9883 11.4074C82.8072 11.6785 82.71 11.9975 82.709 12.324C82.7081 12.542 82.7502 12.758 82.8328 12.9595C82.9154 13.1611 83.0369 13.3442 83.1904 13.4984C83.3438 13.6525 83.5261 13.7746 83.7267 13.8576C83.9274 13.9406 84.1424 13.9828 84.3594 13.9819Z" fill="#131313"/>
</svg>
