<svg width="99" height="31" viewBox="0 0 99 31" fill="none" xmlns="http://www.w3.org/2000/svg">
<path d="M54.997 15.5601H50.791V26.8465H54.997V15.5601Z" fill="#131313"/>
<path d="M39.9946 23.927H37.1248L37.14 26.8615H32.9492V15.5601H37.1552C42.8492 15.5601 42.834 15.5751 42.834 15.5751H42.9555C45.7949 15.5751 48.1029 17.4562 48.1029 19.7586C48.1029 21.5644 46.6604 23.0693 44.6713 23.6562L48.2547 26.8465H42.3633L39.9946 23.927ZM37.1248 20.9474H42.2874C42.9859 20.8722 43.5325 20.4057 43.5325 19.8338C43.5325 19.262 43.0162 18.7654 42.3178 18.7052H37.1096V20.9474H37.1248Z" fill="#131313"/>
<path d="M89.3578 15.5903H93.5638V26.8767H89.3578L82.2972 20.7821V26.8767H78.1064V15.5903H82.2972L89.3578 21.6098V15.5903Z" fill="#131313"/>
<path d="M62.4366 21.2486C62.4366 20.0146 64.2435 19.0214 66.4755 19.0214C68.7076 19.0214 70.5145 20.0146 70.5145 21.2486C70.5145 22.4826 68.7076 23.4758 66.4755 23.4758C64.2435 23.4758 62.4366 22.4826 62.4366 21.2486ZM66.4755 27.2379C71.3952 27.2379 75.3886 24.5593 75.3886 21.2486C75.3886 17.9379 71.3952 15.2593 66.4755 15.2593C61.5559 15.2593 57.5625 17.9379 57.5625 21.2486C57.5625 24.5593 61.5559 27.2379 66.4755 27.2379Z" fill="#131313"/>
<path d="M17.1427 22.2721C20.5743 22.2721 23.3682 20.9478 23.3682 19.3075C23.3682 17.6672 20.5743 16.343 17.1427 16.343C13.7111 16.343 10.9172 17.6672 10.9172 19.3075C10.9172 20.9478 13.6959 22.2721 17.1427 22.2721ZM4.57031 17.3813C5.96725 13.9051 10.1277 11.3619 12.9519 10.158C19.0559 7.55461 25.4788 6.00461 31.8864 4.93616C38.78 3.77742 42.5001 3.64198 49.3329 3.41626C57.76 3.13033 62.543 3.25072 70.955 4.10849C79.6554 4.99635 86.7464 6.60655 93.6096 8.6381L94.3688 10.8653C86.6097 9.1347 80.5513 8.20169 72.9896 7.59975C64.8662 6.96771 60.6602 6.98276 52.9163 7.35897C40.2376 7.96092 30.945 10.1129 24.1274 12.626C27.7412 14.1007 30.1858 16.674 30.1858 19.6085C30.1858 24.1531 24.3551 27.84 17.1427 27.84C9.93028 27.84 4.09961 24.1231 4.09961 19.5784C4.10339 18.8218 4.26359 18.0741 4.57031 17.3813Z" fill="#131313"/>
</svg>
