<svg width="223" height="76" viewBox="0 0 223 76" fill="none" xmlns="http://www.w3.org/2000/svg">
<path fill-rule="evenodd" clip-rule="evenodd" d="M25.3383 0H0L7.12722 18.9528H25.6684C30.7084 18.9538 35.5418 20.9513 39.1056 24.5062C42.6695 28.061 44.6721 32.8821 44.6731 37.9094C44.6731 43.1224 42.5969 48.1219 38.9014 51.808C35.2059 55.4941 30.1938 57.565 24.9675 57.565H21.6301L28.4866 75.8261C44.8622 75.8261 63.3218 58.8522 63.3218 37.9168C63.3237 27.8658 59.324 18.2254 52.202 11.1152C45.0799 4.00492 35.4186 0.00686457 25.3421 0H25.3383Z" fill="white"/>
<path fill-rule="evenodd" clip-rule="evenodd" d="M86.5686 0.173828H106.626L78.1213 76H58.0635L86.5686 0.173828Z" fill="white"/>
</svg>
