<svg width="161" height="34" viewBox="0 0 161 34" fill="none" xmlns="http://www.w3.org/2000/svg">
<path d="M4.87432 4.87436C8.06872 1.57025 12.7345 -0.160856 17.305 0.0117711C19.9832 0.190851 22.6613 0.889426 24.9506 2.31723C25.8993 2.91255 26.8479 3.5482 27.603 4.38229C26.8818 5.22768 26.0364 5.95852 25.2717 6.76358C24.4553 7.54604 23.6971 8.3882 22.8517 9.14486C21.5384 7.9526 19.9122 7.04752 18.1359 6.81359C16.2951 6.5974 14.351 6.68613 12.6619 7.51862C10.7787 8.38455 9.20806 9.80981 8.1639 11.6004C7.80574 12.1973 7.57181 12.8588 7.27657 13.4896C5.40349 12.1102 3.60785 10.634 1.75252 9.23198C2.50983 7.59817 3.5665 6.12069 4.86786 4.87598" fill="#EA4335"/>
<path d="M1.75898 9.23193C3.61431 10.6339 5.40995 12.1101 7.28303 13.4895C7.00393 14.8318 6.58607 16.2048 6.84259 17.589C6.92003 18.3489 7.14752 19.0829 7.28465 19.8331C5.82458 20.9851 4.34192 22.1063 2.89315 23.276C2.52587 23.5658 2.13271 23.8213 1.71864 24.0391C0.699849 22.0338 0.123795 19.833 0.0294794 17.5858C-0.0565533 16.1106 0.045911 14.6306 0.334397 13.1814C0.673198 11.8262 1.05072 10.4548 1.75898 9.24" fill="#FBBC04"/>
<path d="M16.6984 13.6139C21.2491 13.6139 25.8003 13.6139 30.3521 13.6139C30.9329 13.6139 31.5185 13.5719 32.0961 13.6655C33.1012 18.612 32.0074 24.0941 28.721 27.9967C28.3612 28.4243 28.0176 28.8873 27.5223 29.1664C25.7041 27.8306 23.973 26.3915 22.1676 25.0298C23.7439 23.8456 24.9555 22.0693 25.1684 20.0817C22.329 20.0301 19.4879 20.1011 16.65 20.0495C16.571 18.37 16.65 16.684 16.6145 15.0013C16.6307 14.5399 16.5532 14.0624 16.6984 13.6139Z" fill="#4284F4"/>
<path d="M2.89313 23.2761C4.34513 22.1064 5.82456 20.9852 7.28463 19.8333C7.6444 20.4996 7.87026 21.2352 8.28812 21.8709C9.61537 24.0391 11.7159 25.623 14.1655 26.3027C15.8737 26.6776 17.6441 26.6666 19.3475 26.2704C20.351 26.0139 21.2674 25.5283 22.1676 25.0298C23.9665 26.3914 25.704 27.8305 27.5223 29.1664C27.0851 29.7246 26.4881 30.1199 25.9089 30.5248C23.2002 32.4414 19.846 33.2045 16.571 33.2868C13.2669 33.2191 9.9563 32.2801 7.22654 30.3828C4.87391 28.7772 2.97472 26.5924 1.71217 24.0392C2.12602 23.821 2.51915 23.5656 2.88668 23.2761" fill="#34A853"/>
<path d="M105.655 8.59908C107.188 8.54835 108.721 8.54835 110.255 8.59908C111.453 8.59908 112.534 9.35993 113.196 10.3541C113.742 11.2063 113.769 12.2892 113.628 13.2682C113.486 14.2472 112.767 15.0435 111.998 15.599C110.612 16.4765 108.941 16.0732 107.406 16.1721C107.262 17.8232 107.393 19.4844 107.346 21.1431C106.78 21.1925 106.211 21.1925 105.645 21.1431C105.645 16.9609 105.623 12.7736 105.645 8.59654L105.655 8.59908ZM107.408 10.344C107.299 11.6999 107.29 13.0623 107.381 14.4196C108.447 14.4196 109.524 14.5033 110.585 14.3714C112.031 13.8642 112.395 11.7414 111.23 10.7548C110.099 10.0143 108.671 10.4403 107.408 10.344ZM131.304 11.9773C131.326 11.1987 131.229 10.4048 131.403 9.63891C131.956 9.62623 132.506 9.63891 133.059 9.66681C133.109 10.4277 133.059 11.1885 133.112 11.9494C133.684 12.2613 134.438 12.0229 135.095 12.1193C135.125 12.6544 135.125 13.1947 135.095 13.7323C134.428 13.7653 133.759 13.778 133.112 13.8693C133.112 15.4975 133.092 17.1257 133.112 18.754C133.092 19.175 133.285 19.6772 133.729 19.7685C134.226 19.7806 134.723 19.7594 135.217 19.7051C135.268 20.256 135.222 20.8119 135.081 21.346C134.285 21.3942 133.456 21.5057 132.68 21.2775C132.063 20.8895 131.42 20.3264 131.388 19.525C131.214 17.6482 131.44 15.7587 131.274 13.882C130.766 13.7983 130.26 13.7247 129.754 13.6512C129.754 13.1439 129.766 12.6409 129.791 12.1421C130.299 12.0863 130.833 12.1421 131.324 11.9595L131.304 11.9773ZM115.128 13.7349C116.502 11.1277 120.832 11.1124 122.223 13.7349C122.612 14.5972 122.53 15.5787 122.54 16.5069C122.513 18.054 122.577 19.6036 122.51 21.1507C122.066 21.1786 121.62 21.1735 121.176 21.1355C121.032 20.925 120.894 20.7145 120.75 20.5065C119.74 21.1558 118.553 21.8583 117.323 21.4297C115.54 21.1557 114.173 19.071 114.957 17.321C115.453 15.9642 116.894 15.3758 118.198 15.2769C119.123 15.2059 120.011 15.5305 120.926 15.5863C120.836 14.4881 120.036 13.4305 118.875 13.5041C117.856 13.3291 117.005 13.9606 116.336 14.6631C115.89 14.4171 115.483 14.1042 115.128 13.7349ZM116.559 18.5333C116.631 19.4514 117.605 19.9536 118.424 19.9029C119.053 19.8542 119.643 19.5749 120.087 19.1164C120.531 18.6579 120.798 18.051 120.839 17.4073C120.137 16.7631 119.103 16.7326 118.225 16.8062C117.347 16.8797 116.45 17.5797 116.559 18.5333ZM138.302 12.8193C139.108 12.3273 139.924 11.6983 140.923 11.8048C142.624 11.64 144.167 13.1921 144.179 14.9066C144.201 16.9761 144.179 19.0456 144.179 21.1152C143.613 21.1774 143.042 21.1825 142.475 21.1304C142.401 19.0761 142.579 17.0091 142.381 14.9598C142.282 13.6436 140.695 13.2352 139.653 13.641C138.746 14.0417 138.23 15.0562 138.227 16.0377C138.19 17.7294 138.247 19.4235 138.227 21.1101C137.642 21.1684 137.052 21.1684 136.467 21.1101C136.432 18.1072 136.432 15.1061 136.467 12.1066C137.002 12.0453 137.543 12.0538 138.076 12.132C138.131 12.2994 138.237 12.6392 138.292 12.8015L138.302 12.8193ZM147.269 12.6291C148.94 11.3052 151.576 11.5411 152.972 13.1668C153.4 13.6987 153.715 14.3154 153.898 14.9779C154.081 15.6405 154.128 16.3346 154.036 17.0167C151.804 17.0877 149.553 17.0167 147.311 17.0497C147.11 18.721 148.799 20.0931 150.361 19.8065C151.286 19.7862 151.834 18.9594 152.454 18.3888C152.99 18.3228 153.446 18.7337 153.897 18.9442C152.997 21.2268 150.044 22.1626 147.946 21.0416C144.848 19.6087 144.608 14.6428 147.249 12.6291H147.269ZM147.286 15.5127C148.91 15.5787 150.534 15.5787 152.159 15.5127C152.09 14.9151 151.795 14.3688 151.338 13.9899C150.881 13.611 150.297 13.4294 149.711 13.4838C148.521 13.4102 147.648 14.4602 147.286 15.5127ZM158.636 11.9139C159.261 11.6983 159.938 11.8074 160.575 11.9139C160.627 12.5227 160.645 13.1341 160.63 13.745C159.98 13.7095 159.318 13.532 158.681 13.7019C158.227 13.8826 157.839 14.2013 157.569 14.615C157.298 15.0287 157.158 15.5173 157.168 16.0149C157.131 17.7015 157.188 19.388 157.168 21.0746C156.593 21.1534 156.01 21.1611 155.432 21.0974C155.398 18.0963 155.398 15.0968 155.432 12.099C155.889 12.0589 156.348 12.0453 156.806 12.0584C156.95 12.2867 157.106 12.5099 157.265 12.7305C157.714 12.4301 158.178 12.1541 158.656 11.9037L158.636 11.9139ZM125.694 12.9841C126.329 12.6189 126.917 12.0534 127.678 12.0458C128.082 12.0272 128.486 12.034 128.888 12.066C128.918 12.6164 128.921 13.1718 128.906 13.7272C128.132 13.8515 127.222 13.6613 126.592 14.2345C126.176 14.6504 125.776 15.178 125.766 15.8019C125.699 17.633 125.804 19.4641 125.727 21.2927C125.169 21.3388 124.609 21.3455 124.05 21.313C124.006 18.3051 124.013 15.2895 124.05 12.2816C124.535 12.2347 125.024 12.2475 125.506 12.3197C125.551 12.4845 125.642 12.8117 125.689 12.974" fill="black"/>
<path d="M46.3188 9.82045C48.1522 8.36196 50.7696 8.25996 52.8938 9.05551C53.6525 9.42013 54.5249 9.85615 54.8865 10.6797C54.5275 11.0825 54.1423 11.4607 53.7334 11.8119C53.1163 11.3019 52.4968 10.7639 51.728 10.5089C49.8364 9.94539 47.5883 10.5242 46.4174 12.1994C45.4312 13.357 45.3907 14.9864 45.5955 16.4245C46.0204 18.6734 48.309 20.3231 50.5571 20.1242C52.5802 20.1421 54.5881 18.4337 54.5831 16.325C53.1189 16.2179 51.6521 16.325 50.1854 16.2664C49.9885 15.7991 49.9494 15.2794 50.0741 14.7875C52.1301 14.5784 54.2139 14.7212 56.2825 14.711C56.4999 16.5622 56.2192 18.6479 54.8258 19.9942C52.5499 22.4318 48.438 22.4624 45.9749 20.3282C45.2137 19.6735 44.6085 18.8544 44.2041 17.9316C43.7996 17.0089 43.6064 16.0062 43.6387 14.9979C43.671 13.9896 43.928 13.0015 44.3907 12.107C44.8533 11.2125 45.5097 10.4345 46.3112 9.83065L46.3188 9.82045ZM88.6871 8.92546C89.2724 8.83178 89.8665 8.80782 90.4573 8.85407C90.5382 13.0358 90.475 17.22 90.4902 21.4043C89.9162 21.621 89.2941 21.5037 88.6998 21.4833C88.6543 17.2965 88.6846 13.1097 88.6846 8.92546H88.6871ZM60.9962 12.2402C62.2885 11.9597 63.7198 12.1127 64.8148 12.9108C66.9491 14.303 67.5181 17.4801 66.1854 19.6168C65.3964 21.1263 63.6566 21.9117 62.0229 21.9117C60.9229 21.7765 59.7799 21.4017 58.9883 20.5985C57.6506 19.3236 57.2181 17.2404 57.7542 15.4861C58.1133 13.8849 59.4663 12.6813 61.0013 12.2351L60.9962 12.2402ZM61.2162 13.969C60.6995 14.165 60.2514 14.5101 59.928 14.9613C59.6047 15.4125 59.4203 15.9498 59.398 16.5061C59.2893 17.6127 59.5042 18.8723 60.4424 19.5786C61.8763 20.8535 64.4506 20.0503 64.9185 18.1762C65.1511 16.9931 65.1714 15.5269 64.1978 14.6625C63.4871 13.7982 62.2303 13.6426 61.2162 13.969ZM71.142 12.2632C72.3255 11.9954 73.6506 12.0311 74.7102 12.6839C77.2011 13.9741 77.8788 17.6127 76.2755 19.854C75.4537 21.1748 73.8934 21.8811 72.3811 21.9193C70.9498 21.8071 69.4426 21.185 68.6485 19.9228C67.8418 18.8595 67.7129 17.4495 67.8494 16.1593C68.0188 14.3387 69.4451 12.7986 71.1369 12.2632H71.142ZM71.5441 13.946C69.1745 14.6804 68.8736 18.3623 70.8436 19.7137C71.8146 20.3843 73.2915 20.3869 74.1791 19.5658C75.6307 18.4235 75.6964 16.0394 74.5028 14.688C73.7897 13.8492 72.5581 13.6528 71.5441 13.946ZM78.2 15.4606C78.6704 13.5585 80.476 11.9189 82.499 12.1204C83.4828 12.0464 84.2692 12.6992 85.0759 13.1684C85.1543 12.9134 85.2353 12.6584 85.3136 12.4034C85.84 12.3703 86.3678 12.3703 86.8942 12.4034C86.9523 15.3153 86.8942 18.2348 86.9169 21.1518C86.9549 22.5848 86.3581 24.1274 85.1189 24.9128C84.029 25.6191 82.6634 25.6318 81.4167 25.489C80.7349 25.3898 80.0942 25.1004 79.5669 24.6535C79.0396 24.2065 78.6467 23.6198 78.4326 22.9596C78.855 22.6384 79.343 22.2227 79.912 22.3324C80.3976 22.8296 80.8047 23.439 81.442 23.7603C82.5926 24.3263 84.0821 23.8495 84.8054 22.8117C85.2176 22.2023 85.1872 21.4425 85.1948 20.7387C84.249 21.3456 83.2096 22.0136 82.0363 21.8862C80.8679 21.6975 79.6288 21.2079 78.9662 20.1625C77.9876 18.8315 77.7903 17.0313 78.2076 15.453L78.2 15.4606ZM81.4698 13.9945C79.5049 14.9201 79.252 17.8702 80.6302 19.4103C81.0322 19.8165 81.5532 20.0815 82.1161 20.166C82.679 20.2505 83.254 20.15 83.7559 19.8795C85.693 18.6759 85.7385 15.3943 83.8317 14.1449C83.4718 13.9506 83.0745 13.8365 82.667 13.8106C82.2595 13.7846 81.8512 13.8473 81.4698 13.9945ZM93.2568 13.3927C93.6643 12.9563 94.1623 12.6158 94.7152 12.3955C95.2681 12.1751 95.8624 12.0803 96.4558 12.1178C97.9528 12.0464 99.3488 12.9975 100.102 14.2597C100.621 15.17 100.651 16.2587 100.631 17.2812C98.3777 17.5591 96.079 17.2812 93.803 17.4087C93.6057 19.1349 95.4366 20.5526 97.0602 20.1421C97.9882 20.0478 98.5067 19.2165 99.063 18.574C99.5384 18.7728 100.001 18.9972 100.464 19.2216C100.153 20.5526 98.8228 21.4298 97.5685 21.7536C96.2307 22.1666 94.7867 21.7179 93.6664 20.9733C92.4475 20.0784 91.9873 18.5051 91.8406 17.0645C91.9392 15.7564 92.2705 14.3387 93.2466 13.4004L93.2568 13.3927ZM95.2116 14.0353C94.4302 14.3158 94.0761 15.1521 93.8409 15.8865C95.4822 15.9043 97.1284 15.9171 98.7671 15.8865C98.5901 15.3484 98.4536 14.7441 98.0085 14.3693C97.2498 13.7268 96.1169 13.686 95.2267 14.0455" fill="black"/>
</svg>
