<svg width="161" height="51" viewBox="0 0 161 51" fill="none" xmlns="http://www.w3.org/2000/svg">
<path fill-rule="evenodd" clip-rule="evenodd" d="M16.7184 0H0L4.70259 12.5052H16.9362C20.2616 12.5059 23.4507 13.8238 25.8022 16.1693C28.1536 18.5148 29.4749 21.6958 29.4756 25.0129C29.4756 28.4524 28.1058 31.7511 25.6674 34.1833C23.2291 36.6154 19.9221 37.9818 16.4737 37.9818H14.2717L18.7957 50.0306C29.6004 50.0306 41.7801 38.8311 41.7801 25.0178C41.7814 18.386 39.1424 12.0253 34.4432 7.33386C29.744 2.64248 23.3694 0.00452929 16.7209 0V0H16.7184Z" fill="#131313"/>
<path fill-rule="evenodd" clip-rule="evenodd" d="M57.1186 0.114746H70.3529L51.545 50.1454H38.3107L57.1186 0.114746Z" fill="#131313"/>
<path d="M82.6672 18.6065C82.6884 19.5804 82.5145 20.5486 82.1558 21.4546C81.8409 22.226 81.347 22.9119 80.7147 23.4558C80.0633 24.0009 79.305 24.404 78.4882 24.6395C77.5633 24.9088 76.6036 25.0404 75.6402 25.03C75.1313 25.03 74.5686 25.0105 73.9544 24.9665C73.3915 24.9319 72.8326 24.8502 72.2833 24.7225V12.4906C72.8325 12.3628 73.3915 12.2812 73.9544 12.2466C74.5677 12.2059 75.1297 12.1847 75.6402 12.1831C76.6038 12.1735 77.5634 12.3059 78.4882 12.576C79.3044 12.8116 80.0626 13.2139 80.7147 13.7572C81.3466 14.3026 81.8404 14.9891 82.1558 15.7609C82.5147 16.666 82.6886 17.6335 82.6672 18.6065V18.6065ZM75.787 23.4876C77.4655 23.4876 78.7182 23.0597 79.5452 22.2039C80.3722 21.3481 80.7865 20.1498 80.7881 18.609C80.7881 17.0666 80.3738 15.8683 79.5452 15.0141C78.7166 14.1599 77.4638 13.7312 75.787 13.728C75.2977 13.728 74.9013 13.728 74.6297 13.7475C74.3581 13.767 74.1624 13.7719 74.0547 13.7841V23.429C74.1624 23.4412 74.3557 23.4534 74.6297 23.4656C74.9038 23.4778 75.2879 23.4851 75.787 23.4851V23.4876Z" fill="#131313"/>
<path d="M88.9063 15.219C89.4924 15.2036 90.0766 15.2928 90.6312 15.4826C91.0569 15.6275 91.4394 15.8766 91.7438 16.207C92.0481 16.5374 92.2645 16.9386 92.3733 17.374C92.4999 17.8517 92.5616 18.3442 92.5568 18.8383V24.7541L91.9451 24.8542C91.6833 24.8956 91.3897 24.9347 91.0594 24.9713C90.7291 25.0079 90.3768 25.0421 89.9926 25.0714C89.6085 25.1006 89.2293 25.1177 88.8525 25.1177C88.3584 25.1205 87.8657 25.0656 87.3844 24.9542C86.9652 24.8583 86.5688 24.6817 86.2173 24.4344C85.8844 24.1934 85.6197 23.8706 85.4491 23.4972C85.2571 23.0556 85.1644 22.5775 85.1775 22.0964C85.1636 21.6273 85.2733 21.1628 85.4956 20.7492C85.7047 20.3854 86.0005 20.0786 86.3568 19.856C86.7503 19.6145 87.1822 19.442 87.634 19.3459C88.1377 19.2347 88.6522 19.1798 89.1681 19.1824C89.3369 19.1824 89.5131 19.1824 89.6966 19.2092C89.8801 19.2361 90.0514 19.2532 90.2177 19.2825L90.6459 19.3654L90.8906 19.4191V18.9457C90.891 18.6674 90.8606 18.3899 90.8001 18.1183C90.7434 17.854 90.6317 17.6046 90.4722 17.3862C90.3016 17.166 90.0788 16.9915 89.8238 16.8785C89.4866 16.7374 89.1225 16.6716 88.757 16.6857C88.2651 16.681 87.7737 16.7211 87.289 16.8053C86.969 16.8579 86.6545 16.9396 86.3495 17.0494L86.1488 15.6485C86.5033 15.5166 86.8707 15.4226 87.245 15.3679C87.7932 15.2687 88.3492 15.2189 88.9063 15.219V15.219ZM89.0531 23.6998C89.4544 23.6998 89.8116 23.6998 90.1199 23.6729C90.3807 23.6609 90.6401 23.6274 90.8955 23.5729V20.7541C90.7065 20.6744 90.5071 20.6218 90.3034 20.5979C89.9735 20.5522 89.6406 20.531 89.3076 20.5344C89.0367 20.5359 88.7662 20.5547 88.4977 20.5906C88.2253 20.6232 87.96 20.6998 87.7123 20.8175C87.4809 20.9276 87.2782 21.0897 87.1202 21.291C86.9499 21.5187 86.8635 21.7979 86.8755 22.0817C86.8755 22.6902 87.0696 23.1124 87.4578 23.3484C87.9458 23.6084 88.4957 23.7308 89.0482 23.7022L89.0531 23.6998Z" fill="#131313"/>
<path d="M96.2785 15.7317C96.6675 15.6341 97.1862 15.5292 97.8297 15.4218C98.566 15.3055 99.3107 15.2508 100.056 15.2583C100.697 15.238 101.336 15.3458 101.935 15.5755C102.405 15.7654 102.817 16.0731 103.132 16.4688C103.44 16.8752 103.655 17.3443 103.761 17.8428C103.887 18.4223 103.948 19.0142 103.942 19.6073V24.9227H102.246V19.9709C102.253 19.4712 102.213 18.9719 102.126 18.4798C102.07 18.1212 101.936 17.779 101.735 17.4767C101.552 17.2221 101.296 17.0289 101.001 16.9227C100.636 16.7981 100.253 16.7395 99.8678 16.7494C99.6867 16.7494 99.4983 16.7494 99.3026 16.769C99.1069 16.7885 98.9234 16.7958 98.7472 16.8129C98.571 16.83 98.412 16.8519 98.2725 16.8763L97.9716 16.9325V24.9227H96.2736L96.2785 15.7317Z" fill="#131313"/>
<path d="M108.505 13.755C108.217 13.7611 107.938 13.6532 107.729 13.4549C107.523 13.2351 107.408 12.9455 107.408 12.6446C107.408 12.3437 107.523 12.0541 107.729 11.8344C107.941 11.6413 108.218 11.5342 108.505 11.5342C108.792 11.5342 109.068 11.6413 109.28 11.8344C109.485 12.0549 109.598 12.3442 109.598 12.6446C109.598 12.945 109.485 13.2343 109.28 13.4549C109.072 13.6532 108.793 13.7611 108.505 13.755V13.755ZM109.361 24.9302H107.665V15.4634H109.356L109.361 24.9302Z" fill="#131313"/>
<path d="M116.041 25.1032C114.993 25.0788 114.251 24.8543 113.814 24.4296C113.377 24.005 113.158 23.3436 113.158 22.4455V11.0897L114.854 10.7969V22.1746C114.849 22.407 114.873 22.6391 114.927 22.8652C114.968 23.0301 115.052 23.1811 115.172 23.3021C115.295 23.4183 115.446 23.5021 115.61 23.5461C115.831 23.6083 116.057 23.654 116.285 23.6828L116.041 25.1032Z" fill="#131313"/>
<path d="M119.926 13.7548C119.781 13.7583 119.638 13.7329 119.503 13.6801C119.369 13.6273 119.246 13.5481 119.143 13.4473C118.937 13.2276 118.822 12.9379 118.822 12.637C118.822 12.3362 118.937 12.0465 119.143 11.8268C119.354 11.6338 119.631 11.5269 119.917 11.5269C120.204 11.5269 120.48 11.6338 120.692 11.8268C120.898 12.0465 121.012 12.3362 121.012 12.637C121.012 12.9379 120.898 13.2276 120.692 13.4473C120.487 13.6463 120.212 13.7568 119.926 13.7548V13.7548ZM120.785 24.9299H119.087V15.4632H120.785V24.9299Z" fill="#131313"/>
<path d="M127.682 15.2189C128.268 15.2039 128.852 15.2932 129.407 15.4825C129.839 15.6351 130.228 15.8916 130.537 16.2293C130.828 16.5581 131.037 16.9501 131.149 17.3739C131.275 17.8516 131.337 18.3441 131.332 18.8382V24.754L130.721 24.8541C130.459 24.8956 130.163 24.9346 129.835 24.9712C129.507 25.0078 129.15 25.042 128.768 25.0713C128.387 25.1006 128.005 25.1176 127.628 25.1176C127.134 25.1202 126.641 25.0653 126.16 24.9541C125.741 24.8582 125.344 24.6817 124.993 24.4343C124.661 24.1926 124.398 23.8698 124.227 23.4971C124.033 23.0561 123.94 22.5777 123.953 22.0963C123.94 21.627 124.05 21.1625 124.274 20.7491C124.482 20.3785 124.78 20.0656 125.14 19.8388C125.533 19.5974 125.965 19.4248 126.417 19.3287C126.92 19.2176 127.433 19.1628 127.949 19.1652C128.12 19.1652 128.296 19.1652 128.479 19.1921C128.663 19.2189 128.834 19.236 128.998 19.2653L129.426 19.3483L129.671 19.402V18.9285C129.67 18.6503 129.64 18.373 129.581 18.1012C129.524 17.8364 129.411 17.5867 129.25 17.369C129.08 17.1489 128.858 16.9745 128.604 16.8614C128.266 16.7202 127.901 16.6544 127.535 16.6686C127.043 16.6637 126.552 16.7038 126.067 16.7882C125.747 16.8401 125.432 16.9218 125.127 17.0322L124.927 15.6314C125.28 15.4991 125.647 15.405 126.02 15.3507C126.569 15.2572 127.125 15.2131 127.682 15.2189ZM127.829 23.6997C128.23 23.6997 128.585 23.6997 128.895 23.6729C129.156 23.6607 129.416 23.6272 129.671 23.5728V20.754C129.481 20.6747 129.281 20.6222 129.076 20.5978C128.747 20.5521 128.415 20.5309 128.083 20.5344C127.811 20.5359 127.54 20.5547 127.271 20.5905C126.998 20.6231 126.733 20.6997 126.485 20.8175C126.254 20.9281 126.052 21.0901 125.893 21.2909C125.723 21.5186 125.637 21.7978 125.649 22.0816C125.649 22.6901 125.844 23.1124 126.233 23.3483C126.723 23.6094 127.274 23.7318 127.829 23.7021V23.6997Z" fill="#131313"/>
<path d="M135.047 15.7317C135.436 15.6341 135.952 15.5292 136.598 15.4218C137.334 15.3054 138.079 15.2507 138.824 15.2583C139.466 15.238 140.105 15.3458 140.703 15.5755C141.172 15.7657 141.583 16.0734 141.897 16.4688C142.207 16.8743 142.422 17.3437 142.526 17.8428C142.653 18.4222 142.715 19.0141 142.71 19.6073V24.9227H141.012V19.9709C141.018 19.4713 140.979 18.9722 140.894 18.4798C140.837 18.1215 140.703 17.7795 140.503 17.4767C140.32 17.2223 140.064 17.0292 139.769 16.9227C139.405 16.7979 139.023 16.7392 138.638 16.7494C138.455 16.7494 138.267 16.7494 138.073 16.769C137.88 16.7885 137.692 16.7958 137.515 16.8129C137.339 16.83 137.18 16.8519 137.041 16.8763L136.759 16.9276V24.9178H135.047V15.7317Z" fill="#131313"/>
<path d="M148.026 15.4633H151.621V16.8812H148.026V21.2498C148.018 21.6439 148.055 22.0377 148.136 22.4236C148.189 22.6892 148.301 22.9396 148.464 23.1558C148.607 23.3298 148.798 23.4586 149.012 23.5268C149.26 23.6043 149.519 23.6414 149.778 23.6366C150.193 23.6502 150.607 23.5916 151.002 23.4633C151.31 23.3486 151.528 23.2681 151.647 23.2193L151.978 24.6201C151.688 24.7482 151.388 24.8543 151.082 24.9374C150.605 25.0738 150.11 25.1388 149.614 25.1302C149.071 25.1473 148.53 25.0646 148.017 24.8861C147.618 24.7394 147.267 24.4861 147.004 24.154C146.733 23.7936 146.549 23.3762 146.465 22.9337C146.356 22.3858 146.304 21.8279 146.311 21.2693V12.8178L148.026 12.5347V15.4633Z" fill="#131313"/>
<path d="M156.896 23.7025C157.424 23.735 157.952 23.6412 158.437 23.4292C158.594 23.3462 158.724 23.2195 158.811 23.0645C158.898 22.9094 158.938 22.7326 158.926 22.5554C158.932 22.3651 158.89 22.1764 158.804 22.0062C158.719 21.8359 158.593 21.6892 158.437 21.5792C157.93 21.2434 157.384 20.9681 156.812 20.7592C156.447 20.6128 156.097 20.4639 155.763 20.3126C155.45 20.1756 155.158 19.9948 154.897 19.7757C154.652 19.5698 154.453 19.3155 154.312 19.0289C154.156 18.6928 154.082 18.3251 154.094 17.9551C154.079 17.5733 154.156 17.1935 154.318 16.8472C154.479 16.5009 154.721 16.198 155.024 15.9636C155.645 15.4755 156.491 15.2314 157.561 15.2314C157.829 15.2315 158.097 15.2462 158.364 15.2754C158.63 15.3063 158.879 15.3429 159.112 15.3852C159.342 15.4291 159.545 15.4731 159.722 15.5219C159.898 15.5707 160.035 15.6122 160.133 15.6488L159.822 17.1131C159.548 16.9822 159.261 16.8815 158.966 16.8129C158.506 16.7015 158.034 16.649 157.561 16.6567C157.136 16.6451 156.714 16.7381 156.333 16.9276C156.167 17.0068 156.029 17.1327 155.934 17.2898C155.84 17.4469 155.794 17.6281 155.802 17.8111C155.798 17.9994 155.839 18.1861 155.922 18.3553C156.01 18.5239 156.134 18.6707 156.286 18.7848C156.476 18.9264 156.681 19.0451 156.898 19.1387C157.143 19.2485 157.431 19.3632 157.774 19.4853C158.224 19.648 158.625 19.8147 158.978 19.9856C159.305 20.1325 159.609 20.3257 159.881 20.5591C160.129 20.7763 160.326 21.0465 160.456 21.3498C160.599 21.7114 160.668 22.0983 160.656 22.4871C160.677 22.8738 160.599 23.2594 160.427 23.6069C160.256 23.9544 159.998 24.252 159.678 24.4713C159.025 24.9203 158.098 25.1448 156.896 25.1448C156.232 25.1659 155.568 25.0953 154.924 24.935C154.449 24.7958 154.128 24.6909 153.945 24.6177L154.256 23.1534C154.449 23.2266 154.76 23.3364 155.185 23.4828C155.74 23.6466 156.317 23.7207 156.896 23.7025V23.7025Z" fill="#131313"/>
<path d="M70.6515 43.102C70.1621 42.0721 69.6793 41.004 69.203 39.8976C68.7267 38.7912 68.2749 37.6954 67.8475 36.6102C67.4202 35.5266 67.0263 34.4886 66.6658 33.4961C66.3053 32.5036 65.9954 31.6177 65.736 30.8384H68.7846C69.0146 31.5478 69.2707 32.3116 69.5529 33.13C69.8351 33.9484 70.1222 34.7619 70.4141 35.5705L71.2534 37.9061C71.5209 38.6513 71.777 39.2948 72.0216 39.8366C72.2549 39.298 72.5077 38.6562 72.7801 37.911C73.0525 37.1658 73.3355 36.3873 73.6291 35.5754C73.9195 34.7619 74.2057 33.9484 74.4879 33.1349C74.7701 32.3214 75.0262 31.5551 75.2562 30.8359H78.1923C77.9182 31.6169 77.6018 32.5028 77.2429 33.4937C76.8841 34.4845 76.4967 35.5234 76.0807 36.6102C75.655 37.6954 75.2064 38.7928 74.735 39.9025C74.2636 41.0121 73.7833 42.0786 73.2939 43.102H70.6515Z" fill="#131313"/>
<path d="M80.1888 43.102V30.8384H88.488V33.1569H82.956V35.5608H87.869V37.8256H82.956V40.7811H88.8966V43.0971L80.1888 43.102Z" fill="#131313"/>
<path d="M99.5913 43.102C98.7985 41.6995 97.9414 40.3165 97.0198 38.9531C96.1162 37.6063 95.1359 36.3123 94.0837 35.0776V43.1093H91.3434V30.8384H93.5968C93.9883 31.2272 94.4197 31.7048 94.8911 32.271C95.3625 32.8372 95.8445 33.4416 96.3371 34.0843C96.8265 34.7351 97.3158 35.4013 97.8052 36.0831C98.2945 36.7648 98.7496 37.4286 99.1704 38.0745V30.8384H101.921V43.0971L99.5913 43.102Z" fill="#131313"/>
<path d="M114.276 30.8384V33.191H110.579V43.0971H107.802V33.1959H104.096V30.8384H114.276Z" fill="#131313"/>
<path d="M121.264 43.3509C120.504 43.3678 119.746 43.2445 119.03 42.9873C118.443 42.7728 117.912 42.4282 117.477 41.9793C117.064 41.5399 116.756 41.0136 116.574 40.4394C116.372 39.8018 116.273 39.1361 116.28 38.4674V30.8384H119.048V38.2331C119.038 38.6607 119.095 39.0871 119.216 39.4973C119.308 39.8096 119.465 40.0991 119.676 40.3466C119.867 40.5628 120.112 40.7245 120.386 40.8152C120.68 40.9125 120.989 40.9603 121.299 40.9568C121.6 40.9694 121.901 40.9213 122.183 40.8152C122.465 40.709 122.722 40.5472 122.94 40.3393C123.359 39.9244 123.569 39.224 123.569 38.2331V30.8384H126.336V38.4626C126.344 39.135 126.242 39.8042 126.035 40.4443C125.849 41.0227 125.533 41.5517 125.113 41.9915C124.671 42.4412 124.131 42.7835 123.535 42.9922C122.805 43.2438 122.036 43.3653 121.264 43.3509Z" fill="#131313"/>
<path d="M133.006 30.7017C134.849 30.7017 136.262 31.0271 137.244 31.6779C138.226 32.3287 138.717 33.3504 138.717 34.7432C138.751 35.4877 138.542 36.2231 138.122 36.8396C137.68 37.4108 137.087 37.8484 136.41 38.1037C136.654 38.4113 136.918 38.7602 137.19 39.1556C137.462 39.551 137.731 39.9634 137.997 40.3954C138.264 40.8274 138.521 41.274 138.768 41.7401C139.015 42.2063 139.258 42.6626 139.461 43.1092H136.368C136.143 42.709 135.913 42.3014 135.683 41.889C135.453 41.4765 135.213 41.0763 134.971 40.6858C134.729 40.2953 134.482 39.9293 134.237 39.5803C133.992 39.2313 133.762 38.9164 133.525 38.6333H132.16V43.1092H129.405V31.0189C130.023 30.9002 130.648 30.8187 131.276 30.7749C131.921 30.7277 132.497 30.7033 133.006 30.7017ZM133.165 33.0543C132.965 33.0543 132.784 33.0543 132.625 33.0714L132.172 33.108V36.4344H132.952C133.993 36.4344 134.738 36.3043 135.186 36.0439C135.635 35.7836 135.86 35.3411 135.862 34.7163C135.882 34.4601 135.828 34.2035 135.707 33.9766C135.586 33.7497 135.403 33.5618 135.179 33.435C134.721 33.1812 134.049 33.0543 133.165 33.0543V33.0543Z" fill="#131313"/>
<path d="M141.653 43.102V30.8384H149.952V33.1569H144.408V35.5608H149.321V37.8256H144.408V40.7811H150.351V43.0971L141.653 43.102Z" fill="#131313"/>
<path d="M156.15 40.9982C156.479 41.0053 156.807 40.9725 157.128 40.9006C157.347 40.8508 157.554 40.7606 157.74 40.6346C157.883 40.5362 157.994 40.3978 158.058 40.2368C158.12 40.0732 158.151 39.8993 158.149 39.7243C158.146 39.5233 158.093 39.3262 157.993 39.1513C157.894 38.9764 157.752 38.8293 157.581 38.7237C156.969 38.3537 156.311 38.0657 155.623 37.8671C155.222 37.7255 154.821 37.5628 154.42 37.3789C154.027 37.2034 153.662 36.9716 153.336 36.6907C153.014 36.4069 152.749 36.0649 152.555 35.6828C152.343 35.2322 152.24 34.7381 152.254 34.2404C152.246 33.713 152.356 33.1904 152.575 32.7102C152.784 32.2605 153.093 31.8641 153.478 31.551C153.898 31.2171 154.381 30.9684 154.897 30.8188C155.508 30.6443 156.142 30.562 156.778 30.5748C158.043 30.5493 159.293 30.8413 160.414 31.4241L159.614 33.601C159.247 33.4132 158.865 33.2556 158.471 33.13C157.979 32.9853 157.468 32.917 156.955 32.9274C156.291 32.9274 155.817 33.0202 155.528 33.2008C155.386 33.2889 155.271 33.4137 155.194 33.5619C155.117 33.7101 155.082 33.8763 155.093 34.0428C155.086 34.2433 155.142 34.441 155.252 34.609C155.373 34.7758 155.527 34.9168 155.704 35.0238C155.918 35.1574 156.144 35.2701 156.38 35.3606C156.624 35.4607 156.913 35.5632 157.221 35.6706C157.86 35.9146 158.415 36.1392 158.887 36.3686C159.322 36.5716 159.72 36.8436 160.067 37.1739C160.378 37.4769 160.618 37.8454 160.769 38.2527C160.933 38.7366 161.011 39.2453 160.999 39.756C160.999 40.8949 160.597 41.7825 159.793 42.4186C158.989 43.0548 157.777 43.3704 156.157 43.3655C155.666 43.368 155.175 43.3353 154.689 43.2679C154.297 43.2107 153.909 43.1292 153.527 43.0239C153.231 42.9427 152.941 42.8424 152.658 42.7237C152.413 42.6163 152.213 42.5162 152.046 42.4235L152.827 40.227C153.259 40.4538 153.714 40.6346 154.185 40.7664C154.826 40.9353 155.487 41.0134 156.15 40.9982V40.9982Z" fill="#131313"/>
</svg>
