<svg width="105" height="105" viewBox="0 0 105 105" fill="none" xmlns="http://www.w3.org/2000/svg">
<g opacity="0.99">
<rect width="105" height="105" rx="52.5" fill="#131313"/>
<path d="M31.548 57V44.22H33.87V55.002H39.396V57H31.548ZM41.5107 55.866C40.5387 54.954 40.0527 53.802 40.0527 52.41C40.0527 51.018 40.5387 49.872 41.5107 48.972C42.4827 48.06 43.6707 47.604 45.0747 47.604C46.4907 47.604 47.6847 48.06 48.6567 48.972C49.6407 49.872 50.1327 51.018 50.1327 52.41C50.1327 53.802 49.6467 54.954 48.6747 55.866C47.7027 56.766 46.5087 57.216 45.0927 57.216C43.6767 57.216 42.4827 56.766 41.5107 55.866ZM42.3747 52.41C42.3747 53.25 42.6327 53.94 43.1487 54.48C43.6767 55.008 44.3247 55.272 45.0927 55.272C45.8607 55.272 46.5087 55.008 47.0367 54.48C47.5647 53.94 47.8287 53.25 47.8287 52.41C47.8287 51.582 47.5587 50.898 47.0187 50.358C46.4907 49.818 45.8487 49.548 45.0927 49.548C44.3367 49.548 43.6947 49.818 43.1667 50.358C42.6387 50.898 42.3747 51.582 42.3747 52.41ZM53.0629 58.242C53.8789 58.638 54.7249 58.836 55.6009 58.836C56.3689 58.836 56.9929 58.656 57.4729 58.296C57.9529 57.936 58.1929 57.372 58.1929 56.604V56.028L58.2289 55.542H58.1929C57.6289 56.394 56.7709 56.82 55.6189 56.82C54.3469 56.82 53.3449 56.376 52.6129 55.488C51.8809 54.6 51.5149 53.496 51.5149 52.176C51.5149 50.856 51.8689 49.764 52.5769 48.9C53.2969 48.036 54.2929 47.604 55.5649 47.604C56.8129 47.604 57.7249 48.006 58.3009 48.81H58.3549C58.3309 48.738 58.3189 48.654 58.3189 48.558V47.82H60.4789V56.442C60.4789 57.198 60.3409 57.864 60.0649 58.44C59.7889 59.016 59.4169 59.466 58.9489 59.79C58.4809 60.126 57.9649 60.372 57.4009 60.528C56.8489 60.696 56.2609 60.78 55.6369 60.78C54.4729 60.78 53.3809 60.516 52.3609 59.988L53.0629 58.242ZM53.8189 52.104C53.8189 52.932 54.0169 53.604 54.4129 54.12C54.8209 54.636 55.3909 54.894 56.1229 54.894C56.7349 54.894 57.2389 54.684 57.6349 54.264C58.0429 53.844 58.2469 53.154 58.2469 52.194C58.2469 50.43 57.4909 49.548 55.9789 49.548C55.2949 49.548 54.7609 49.782 54.3769 50.25C54.0049 50.706 53.8189 51.324 53.8189 52.104ZM63.8349 55.866C62.8629 54.954 62.3769 53.802 62.3769 52.41C62.3769 51.018 62.8629 49.872 63.8349 48.972C64.8069 48.06 65.9949 47.604 67.3989 47.604C68.8149 47.604 70.0089 48.06 70.9809 48.972C71.9649 49.872 72.4569 51.018 72.4569 52.41C72.4569 53.802 71.9709 54.954 70.9989 55.866C70.0269 56.766 68.8329 57.216 67.4169 57.216C66.0009 57.216 64.8069 56.766 63.8349 55.866ZM64.6989 52.41C64.6989 53.25 64.9569 53.94 65.4729 54.48C66.0009 55.008 66.6489 55.272 67.4169 55.272C68.1849 55.272 68.8329 55.008 69.3609 54.48C69.8889 53.94 70.1529 53.25 70.1529 52.41C70.1529 51.582 69.8829 50.898 69.3429 50.358C68.8149 49.818 68.1729 49.548 67.4169 49.548C66.6609 49.548 66.0189 49.818 65.4909 50.358C64.9629 50.898 64.6989 51.582 64.6989 52.41Z" fill="white"/>
</g>
</svg>
