<svg width="93" height="29" viewBox="0 0 93 29" fill="none" xmlns="http://www.w3.org/2000/svg">
<rect width="29" height="29" rx="14.5" fill="#131313"/>
<path d="M8.032 19V10.48H13.132V11.812H9.58V14.044H12.448V15.376H9.58V17.668H13.324V19H8.032ZM14.8523 19V10.48H16.4003L19.6283 15.4C19.7243 15.552 19.8283 15.74 19.9403 15.964C20.0603 16.18 20.1563 16.36 20.2283 16.504L20.3363 16.72H20.3603C20.3043 16.176 20.2763 15.736 20.2763 15.4V10.48H21.8123V19H20.2763L17.0483 14.092C16.9523 13.94 16.8443 13.756 16.7243 13.54C16.6123 13.316 16.5203 13.132 16.4483 12.988L16.3403 12.772H16.3163C16.3723 13.316 16.4003 13.756 16.4003 14.092V19H14.8523Z" fill="white"/>
<path d="M46.032 19V10.48H50.928V11.812H47.58V14.224H50.4V15.556H47.58V19H46.032ZM52.3133 19V10.48H53.8613V19H52.3133Z" fill="#131313"/>
<path d="M77.032 19V10.48H79.84C80.56 10.48 81.096 10.556 81.448 10.708C81.896 10.892 82.248 11.184 82.504 11.584C82.76 11.984 82.888 12.468 82.888 13.036C82.888 13.556 82.76 14.032 82.504 14.464C82.248 14.888 81.9 15.188 81.46 15.364V15.388C81.532 15.476 81.624 15.624 81.736 15.832L83.488 19H81.748L80.068 15.82H78.58V19H77.032ZM78.58 14.476H79.972C80.388 14.476 80.716 14.356 80.956 14.116C81.196 13.868 81.316 13.536 81.316 13.12C81.316 12.528 81.092 12.14 80.644 11.956C80.428 11.86 80.116 11.812 79.708 11.812H78.58V14.476ZM84.6118 15.94V10.48H86.1598V15.928C86.1598 16.496 86.3278 16.94 86.6638 17.26C87.0078 17.572 87.4678 17.728 88.0438 17.728C88.6198 17.728 89.0758 17.572 89.4118 17.26C89.7558 16.94 89.9278 16.496 89.9278 15.928V10.48H91.4758V15.94C91.4758 16.892 91.1598 17.664 90.5278 18.256C89.9038 18.848 89.0798 19.144 88.0558 19.144C87.0238 19.144 86.1918 18.848 85.5598 18.256C84.9278 17.664 84.6118 16.892 84.6118 15.94Z" fill="#131313"/>
</svg>
