<svg width="32" height="32" viewBox="0 0 32 32" fill="none" xmlns="http://www.w3.org/2000/svg">
<rect width="32" height="32" rx="16" fill="#131313"/>
<path d="M7 15.4364C7.03244 15.151 7.05622 14.8643 7.09731 14.5804C7.46733 12.0574 8.6687 10.0326 10.7014 8.50606C11.5964 7.83654 12.6055 7.33665 13.6791 7.03093C13.9602 6.94837 14.2327 7.03455 14.3841 7.24818C14.5354 7.46181 14.5383 7.73844 14.3444 7.98249C13.7794 8.68474 13.3686 9.49916 13.1392 10.3722C12.7197 11.9727 12.8321 13.5332 13.5234 15.0388C14.2442 16.6124 15.4112 17.7443 16.9891 18.433C18.1388 18.9398 19.4085 19.1071 20.6494 18.9153C21.8487 18.7384 22.9778 18.2378 23.9162 17.4669C24.0993 17.3221 24.2917 17.2033 24.5418 17.2577C24.872 17.3301 25.0608 17.6132 24.9823 17.9434C24.7988 18.7284 24.513 19.4857 24.1324 20.1956C23.4569 21.462 22.4895 22.5475 21.3111 23.3617C20.2616 24.0858 19.1162 24.6 17.8613 24.8274C14.8598 25.3712 12.2029 24.6326 9.93878 22.5731C8.49714 21.263 7.59323 19.6257 7.19318 17.7139C7.11461 17.3359 7.08506 16.9463 7.03172 16.5624C7.02379 16.5045 7.01081 16.448 7 16.3908V15.4364Z" fill="white"/>
</svg>
