<svg width="138" height="26" viewBox="0 0 138 26" fill="none" xmlns="http://www.w3.org/2000/svg">
<g clip-path="url(#clip0_1_966)">
<path d="M28.8923 9.88945C27.3899 9.88945 25.8235 10.9845 25.8235 10.9845V10.2808C25.8235 10.1265 25.7617 10.0647 25.6072 10.0647H23.6896C23.5349 10.0647 23.4421 10.1573 23.4421 10.2808V25.2893C23.4421 25.4442 23.504 25.5368 23.6587 25.5368H25.6071C25.7305 25.5368 25.8233 25.4442 25.8233 25.2893V12.4422C25.8233 12.4422 26.7277 11.87 27.8261 11.87C28.8718 11.87 29.6975 12.3883 29.6975 13.451V25.2887C29.6975 25.4436 29.7899 25.5362 29.9449 25.5362H31.8621C32.0168 25.5362 32.0785 25.4123 32.0785 25.2887V12.7783C32.0784 10.8942 30.9183 9.88945 28.8923 9.88945ZM43.8082 2.36108H41.8905C41.7357 2.36108 41.6433 2.45357 41.6433 2.57735V10.1488C40.907 9.86686 40.2368 9.7179 39.6952 9.7179C36.581 9.7179 34.4431 12.6908 34.4431 18.4074C34.4431 23.3049 36.5227 25.9313 39.2368 25.9313C40.3807 25.9313 41.3252 25.2768 42.0166 24.6628L42.4353 25.3715C42.5059 25.4941 42.5636 25.5361 42.7056 25.5361L43.8085 25.5371C43.9322 25.5371 44.0251 25.4445 44.0251 25.2896V2.57735C44.0248 2.42274 43.9626 2.36108 43.8082 2.36108ZM36.9788 17.9016C36.9788 14.7515 37.9021 11.6325 39.7873 11.6325C40.4261 11.6325 41.0392 11.8424 41.6436 12.3216V23.419C41.1711 23.6758 40.5769 23.912 39.9348 23.912C37.8847 23.912 36.9788 21.4841 36.9788 17.9016ZM51.1533 9.74888C47.9599 9.74888 46.3838 13.9203 46.3838 18.4598C46.3838 23.2115 48.6318 25.8746 51.5219 25.8746C52.7923 25.8746 54.057 25.3753 54.8863 24.9152C55.0133 24.8445 55.0363 24.7452 55.0059 24.6223L54.7633 23.6185C54.733 23.4957 54.6712 23.4346 54.5179 23.4346C54.4505 23.4346 53.4026 23.7406 52.3833 23.7406C50.018 23.7406 48.9335 21.641 48.9335 18.8526V18.175C48.9335 18.175 50.1089 18.3372 50.8152 18.3372H55.2775V17.0494C55.2776 12.2949 53.6103 9.74888 51.1533 9.74888ZM50.9997 16.4049C50.2934 16.4049 49.008 16.5793 49.008 16.5793C49.008 16.5793 49.0252 16.0674 49.0869 15.577C49.3636 12.9698 49.9862 11.6509 51.0611 11.6509C51.9957 11.6509 52.6363 13.0002 52.79 15.362C52.8204 15.8528 52.8204 16.4049 52.8204 16.4049H50.9997ZM19.8004 11.6985C19.0913 10.3032 17.8284 9.69348 16.3816 9.69348C15.4522 9.69348 14.0018 10.0483 13.0329 10.4833C12.8434 10.5685 12.7237 10.6432 12.7237 10.7921C12.7237 10.8806 12.7679 10.9822 12.8164 11.07L13.4691 12.4655C13.5364 12.6231 13.6443 12.6592 13.7334 12.6592C13.83 12.6592 13.9085 12.6136 13.995 12.5582C14.94 11.9553 15.6321 11.6237 16.18 11.6237C16.9049 11.6237 17.3972 12.1038 17.7008 12.826C17.9837 13.4989 18.0929 14.4287 18.0929 15.503C18.0929 15.6399 18.0937 15.8186 18.0937 15.8186C17.4982 15.4466 16.4666 15.2416 15.9515 15.2416C13.181 15.2416 11.6872 17.8702 11.6872 20.6812C11.6872 23.7099 13.4334 25.9312 15.5317 25.9312C16.7003 25.9312 17.7582 25.2464 18.4668 24.3827C18.4668 24.3827 18.8441 25.2809 18.8933 25.3886C18.943 25.4961 18.9953 25.5359 19.1373 25.5359L20.2586 25.537C20.3821 25.537 20.4749 25.4443 20.4749 25.2894V16.5831C20.4745 14.4435 20.3662 12.8115 19.8004 11.6985ZM18.0934 23.1046C17.5439 23.6345 16.8861 23.912 16.294 23.912C15.7021 23.912 15.2447 23.639 14.8777 23.133C14.4311 22.5178 14.2228 21.5703 14.2228 20.5203C14.2228 18.8598 14.8367 17.1559 16.1378 17.1559C16.7819 17.1559 17.4894 17.3653 18.0932 17.845L18.0934 23.1046ZM65.4042 10.0625H63.6948C63.5039 10.0625 63.4064 10.1623 63.3574 10.2919C62.9803 11.2815 62.6047 12.2717 62.2305 13.2624C62.0193 13.8246 61.4504 15.4345 61.4504 15.4345L61.3842 15.434C61.3818 15.4282 60.9656 14.2628 60.74 13.6792C60.5577 13.2059 59.6052 10.7014 59.4849 10.3928C59.4204 10.2269 59.3484 10.0625 59.1039 10.0625H57.2329C57.0271 10.0625 56.9108 10.2879 56.977 10.4277C57.044 10.568 60.0251 17.3491 60.0251 17.3491C60.0251 17.3491 56.8236 24.9424 56.7297 25.1127C56.6362 25.2832 56.7536 25.5356 56.9813 25.5356H58.6211C58.9 25.5356 59.0102 25.3895 59.094 25.1544C59.3296 24.495 59.6806 23.5782 60.1776 22.1611C60.5066 21.2222 61.0275 19.5741 61.0275 19.5741H61.0848C61.0848 19.5741 61.6549 21.2538 61.8672 21.8029C62.4029 23.1918 63.0881 25.0057 63.161 25.1972C63.2366 25.3975 63.3426 25.5358 63.5342 25.5358H65.3938C65.5778 25.5358 65.6631 25.3261 65.5763 25.1435C65.3693 24.7079 63.6033 20.4231 62.3769 17.606C62.3769 17.606 65.5593 10.5929 65.6215 10.4193C65.6848 10.2455 65.6665 10.0625 65.4042 10.0625Z" fill="black"/>
<path d="M13.6237 0.102783H11.4677C11.2768 0.102783 11.1578 0.196188 11.1301 0.332021C11.1027 0.468465 7.89743 10.228 7.66435 11.041C7.49914 11.6172 6.96069 13.6492 6.83139 14.1371L5.71659 11.0978C5.44591 10.2614 2.84935 3.01831 2.77339 2.72894C2.73152 2.56991 2.65815 2.37211 2.37892 2.37211H0.274495C0.0684701 2.37211 -0.0475338 2.59769 0.018645 2.73749C0.0718325 2.84921 3.87321 12.9483 5.40908 16.8066V25.2893C5.40908 25.4442 5.47098 25.5369 5.62565 25.5369H7.61896C7.74261 25.5369 7.83538 25.4442 7.83538 25.2893V16.8733C9.11524 13.3027 13.7916 0.601856 13.8425 0.459613C13.9044 0.285624 13.8861 0.102783 13.6237 0.102783Z" fill="#FF0000"/>
</g>
<path d="M76 4H129.598L136.788 14.5L129.598 25H76V4Z" stroke="#FFDA1A" stroke-width="2"/>
<path d="M88 17.8657V10H90.7381C91.4517 10 92.0377 10.2163 92.4959 10.649C92.9541 11.0816 93.1832 11.6559 93.1832 12.372C93.1832 13.0956 92.9541 13.6774 92.4959 14.1175C92.0377 14.5576 91.4517 14.7776 90.7381 14.7776H88.7775V17.8657H88ZM88.7775 14.0839H90.6367C91.17 14.0839 91.5945 13.931 91.91 13.6252C92.2255 13.3193 92.3832 12.9016 92.3832 12.372C92.3832 11.8499 92.2255 11.4396 91.91 11.1413C91.602 10.8429 91.1813 10.6937 90.648 10.6937H88.7775V14.0839Z" fill="black"/>
<path d="M94.0955 16.3552C94.0955 15.0499 95.2448 14.3972 97.5435 14.3972H97.8815V14.2406C97.8815 13.2709 97.4158 12.786 96.4843 12.786C95.9059 12.786 95.3688 12.965 94.873 13.3231L94.5237 12.7413C94.749 12.5473 95.0458 12.3944 95.4138 12.2825C95.7819 12.1632 96.1538 12.1035 96.5294 12.1035C97.2129 12.1035 97.735 12.29 98.0956 12.6629C98.4637 13.0284 98.6477 13.5618 98.6477 14.2629V17.8657H97.9153V17.2056L97.9491 16.7357H97.9266C97.7688 17.0937 97.5172 17.3958 97.1716 17.642C96.8336 17.8807 96.4467 18 96.011 18C95.4927 18 95.042 17.8545 94.6589 17.5636C94.2833 17.2727 94.0955 16.8699 94.0955 16.3552ZM94.873 16.2881C94.873 16.5716 94.9857 16.8214 95.211 17.0378C95.4364 17.2541 95.7481 17.3622 96.1463 17.3622C96.6646 17.3622 97.0815 17.1459 97.397 16.7133C97.72 16.2807 97.8815 15.7958 97.8815 15.2587V15.0014H97.5547C97.3144 15.0014 97.104 15.0051 96.9237 15.0126C96.751 15.02 96.5218 15.0499 96.2364 15.1021C95.9585 15.1469 95.7293 15.2103 95.5491 15.2923C95.3688 15.3744 95.211 15.5012 95.0758 15.6727C94.9406 15.8443 94.873 16.0494 94.873 16.2881Z" fill="black"/>
<path d="M100.638 17.8657V12.2378H101.393V13.2783L101.348 13.7259H101.37C101.52 13.2783 101.753 12.9091 102.069 12.6182C102.392 12.3273 102.764 12.1818 103.184 12.1818C103.297 12.1818 103.398 12.193 103.488 12.2154V12.965C103.443 12.9501 103.349 12.9427 103.207 12.9427C102.809 12.9427 102.467 13.0807 102.181 13.3566C101.896 13.6326 101.693 13.9571 101.573 14.3301C101.46 14.6956 101.404 15.0797 101.404 15.4825V17.8657H100.638Z" fill="black"/>
<path d="M105.093 15.8182V12.9203H104.35V12.2825H105.104V10.6825H105.859V12.2825H107.29V12.9203H105.859V15.7399C105.859 16.0457 105.905 16.3068 105.995 16.5231C106.085 16.7319 106.201 16.8848 106.344 16.9818C106.487 17.0713 106.622 17.1347 106.75 17.172C106.877 17.2093 107.009 17.228 107.144 17.228C107.249 17.228 107.336 17.2205 107.403 17.2056V17.8881C107.313 17.903 107.204 17.9105 107.076 17.9105C106.919 17.9105 106.765 17.8993 106.614 17.8769C106.464 17.8545 106.291 17.8023 106.096 17.7203C105.908 17.6308 105.743 17.5152 105.6 17.3734C105.458 17.2317 105.337 17.0266 105.24 16.758C105.142 16.4895 105.093 16.1762 105.093 15.8182Z" fill="black"/>
<path d="M108.78 17.8657V12.2378H109.535V13.1217L109.49 13.5692H109.512C109.655 13.2261 109.922 12.8979 110.312 12.5846C110.711 12.2639 111.206 12.1035 111.8 12.1035C112.483 12.1035 112.972 12.2862 113.265 12.6517C113.558 13.0172 113.704 13.5618 113.704 14.2853V17.8657H112.938V14.4867C112.938 13.9571 112.855 13.5469 112.69 13.2559C112.525 12.965 112.194 12.8196 111.698 12.8196C111.09 12.8196 110.579 13.0396 110.166 13.4797C109.753 13.9198 109.546 14.4643 109.546 15.1133V17.8657H108.78Z" fill="black"/>
<path d="M115.313 15.0573C115.313 14.1622 115.579 13.4462 116.113 12.9091C116.653 12.372 117.322 12.1035 118.118 12.1035C118.87 12.1035 119.452 12.3534 119.865 12.8531C120.278 13.3455 120.485 13.9608 120.485 14.6993C120.485 14.7888 120.477 14.9156 120.462 15.0797H116.113C116.128 15.7734 116.345 16.3179 116.766 16.7133C117.187 17.1086 117.701 17.3063 118.31 17.3063C118.963 17.3063 119.538 17.0825 120.034 16.635L120.383 17.2168C120.12 17.4555 119.797 17.6457 119.414 17.7874C119.039 17.9291 118.663 18 118.287 18C117.438 18 116.729 17.724 116.158 17.172C115.594 16.62 115.313 15.9152 115.313 15.0573ZM116.146 14.4755H119.707C119.685 13.9161 119.523 13.4872 119.223 13.1888C118.922 12.883 118.546 12.7301 118.096 12.7301C117.607 12.7301 117.183 12.883 116.822 13.1888C116.462 13.4946 116.237 13.9235 116.146 14.4755Z" fill="black"/>
<path d="M122.149 17.8657V12.2378H122.904V13.2783L122.859 13.7259H122.882C123.032 13.2783 123.265 12.9091 123.58 12.6182C123.903 12.3273 124.275 12.1818 124.696 12.1818C124.808 12.1818 124.91 12.193 125 12.2154V12.965C124.955 12.9501 124.861 12.9427 124.718 12.9427C124.32 12.9427 123.978 13.0807 123.693 13.3566C123.407 13.6326 123.205 13.9571 123.084 14.3301C122.972 14.6956 122.915 15.0797 122.915 15.4825V17.8657H122.149Z" fill="black"/>
<defs>
<clipPath id="clip0_1_966">
<rect width="65.6525" height="25.8305" fill="white" transform="translate(0 0.101562)"/>
</clipPath>
</defs>
</svg>
